<?xml version="1.0" encoding="UTF-8"?>
<svg xmlns="http://www.w3.org/2000/svg" width="1200" height="542" viewBox="0 0 1200 542" fill="none">
  <defs><linearGradient id="bg" x1="0" y1="0" x2="0" y2="1" gradientUnits="objectBoundingBox">
      <stop stop-color="#232F3E"/>
      <stop offset="1" stop-color="#131a22"/>
    </linearGradient></defs>
  <rect width="1200" height="542" rx="12" fill="url(#bg)"/>
  <rect x="1" y="1" width="1198" height="540" rx="11" stroke="#FF9900" stroke-width="1" fill="none" opacity="0.35"/>
  <g transform="translate(36 16) scale(0.525)"><g fill="#7B68EE">
    <title>Icon-Architecture/64/Arch_Amazon-Route-53_64</title>
    <g id="Icon-Architecture/64/Arch_Amazon-Route-53_64" stroke="none" stroke-width="1" fill="none" fill-rule="evenodd">
        <g id="Icon-Architecture-BG/64/Networking-Content-Delivery" fill="#8C4FFF">
            <rect id="Rectangle" x="0" y="0" width="80" height="80"></rect>
        </g>
        <path d="M48.692,40.6795109 C49.431,41.3627732 49.801,42.2781246 49.801,43.4275659 C49.801,44.678046 49.351,45.6764293 48.452,46.4227159 C47.552,47.1700028 46.343,47.543146 44.826,47.543146 C43.627,47.543146 42.44,47.2870477 41.266,46.7768518 L41.266,45.2452638 C42.657,45.7054405 43.843,45.9345284 44.826,45.9345284 C45.796,45.9345284 46.542,45.7174451 47.065,45.2842788 C47.588,44.8501121 47.849,44.2308744 47.849,43.4275659 C47.849,41.8829729 46.874,41.1106764 44.921,41.1106764 C44.309,41.1106764 43.703,41.1426887 43.103,41.2057129 L43.103,39.9432282 L47.123,35.5585448 L41.458,35.5585448 L41.458,33.9889422 L49.247,33.9889422 L49.247,35.5015229 L45.304,39.6751253 C45.369,39.6621203 45.431,39.656118 45.496,39.656118 L45.687,39.656118 C46.951,39.656118 47.952,39.9972489 48.692,40.6795109 M37.574,40.3453826 C38.351,41.0726618 38.74,42.0740463 38.74,43.349536 C38.74,44.6010165 38.288,45.6124048 37.381,46.3847013 C36.475,47.1569978 35.283,47.543146 33.803,47.543146 C32.503,47.543146 31.284,47.2870477 30.148,46.7768518 L30.148,45.2452638 C31.564,45.7054405 32.776,45.9345284 33.784,45.9345284 C34.754,45.9345284 35.497,45.7154443 36.013,45.2742749 C36.53,44.834106 36.789,44.1998624 36.789,43.3695437 C36.789,42.4631957 36.546,41.8059434 36.061,41.3977867 C35.576,40.9896299 34.785,40.7845512 33.688,40.7845512 C32.897,40.7845512 31.909,40.8495762 30.722,40.976625 L30.722,39.7131399 L31.086,33.9889422 L38.071,33.9889422 L38.071,35.5585448 L32.693,35.5585448 L32.444,39.4450369 C33.146,39.3179882 33.777,39.2539636 34.338,39.2539636 C35.716,39.2539636 36.795,39.617103 37.574,40.3453826 M51.957,54.37777 C47.103,55.250105 42.852,57.2268639 40,58.8374822 C37.147,57.2268639 32.896,55.250105 28.043,54.37777 C26.677,54.1326759 19.869,52.7111302 19.869,48.7756192 C19.869,46.951919 20.522,45.7424547 21.776,43.5826255 C23.274,40.9996338 25.138,37.7843994 25.138,33.1556222 C25.138,29.8473521 24.271,26.6751342 22.559,23.7149977 C22.76,23.4669025 22.965,23.2158061 23.171,22.9627089 C25.707,24.2301955 28.347,24.8724421 31.031,24.8724421 C34.311,24.8724421 37.325,24.0111114 40,22.3114589 C42.674,24.0111114 45.688,24.8724421 48.968,24.8724421 C51.652,24.8724421 54.293,24.2301955 56.829,22.9627089 C57.034,23.2158061 57.239,23.4669025 57.44,23.7149977 C55.728,26.6751342 54.861,29.8473521 54.861,33.1556222 C54.861,37.7843994 56.725,40.9996338 58.226,43.586627 C59.477,45.7424547 60.13,46.951919 60.13,48.7756192 C60.13,52.7111302 53.322,54.1326759 51.957,54.37777 M56.861,33.1556222 C56.861,29.9974097 57.752,26.9702475 59.507,24.1581679 C59.735,23.7950284 59.706,23.3278491 59.434,22.9957216 C58.926,22.3734827 58.393,21.7182311 57.867,21.0669811 C57.562,20.6898363 57.032,20.5857963 56.606,20.8198862 C54.143,22.1814089 51.574,22.8716739 48.968,22.8716739 C45.824,22.8716739 43.077,22.0263494 40.569,20.2886823 C40.227,20.0515912 39.772,20.0515912 39.43,20.2886823 C36.922,22.0263494 34.175,22.8716739 31.031,22.8716739 C28.425,22.8716739 25.856,22.1814089 23.393,20.8198862 C22.968,20.5857963 22.437,20.6898363 22.132,21.0669811 C21.606,21.7182311 21.073,22.3734827 20.565,22.9957216 C20.294,23.3278491 20.264,23.7950284 20.492,24.1581679 C22.248,26.9702475 23.138,29.9974097 23.138,33.1556222 C23.138,37.2461927 21.423,40.2023277 20.045,42.581241 C18.695,44.9041328 17.869,46.4467251 17.869,48.7756192 C17.869,54.1646882 25.385,55.9343677 27.689,56.3475263 C32.549,57.2208616 36.793,59.2806524 39.497,60.8542565 C39.652,60.9452915 39.826,60.9903088 40,60.9903088 C40.173,60.9903088 40.347,60.9452915 40.503,60.8542565 C43.207,59.2806524 47.45,57.2208616 52.31,56.3475263 C54.614,55.9343677 62.13,54.1646882 62.13,48.7756192 C62.13,46.4467251 61.304,44.9041328 59.954,42.5782399 C58.576,40.2023277 56.861,37.2461927 56.861,33.1556222 M52.994,60.1569888 C46.863,61.2594121 41.723,64.556678 40,65.7641416 C38.276,64.556678 33.136,61.2594121 27.005,60.1569888 C14.937,57.9891566 14,50.8974338 14,48.7756192 C14,45.2852792 15.371,42.9233724 16.697,40.6374948 C17.961,38.4596586 19.268,36.2067937 19.268,33.1556222 C19.268,28.3357718 16.485,24.9314648 15.112,23.5459328 C16.556,21.7892584 20.204,17.3415508 22.003,15.0236609 C24.729,17.5966487 27.898,19.0001876 31.031,19.0001876 C34.509,19.0001876 37.385,17.5846441 40,14.5644846 C42.614,17.5846441 45.49,19.0001876 48.968,19.0001876 C52.101,19.0001876 55.27,17.5966487 57.997,15.0236609 C59.796,17.3415508 63.443,21.7892584 64.887,23.5459328 C63.514,24.9314648 60.731,28.3357718 60.731,33.1556222 C60.731,36.2067937 62.039,38.4596586 63.302,40.6374948 C64.629,42.9233724 66,45.2852792 66,48.7756192 C66,50.8974338 65.062,57.9891566 52.994,60.1569888 M65.032,39.6341095 C63.797,37.5052922 62.731,35.6675867 62.731,33.1556222 C62.731,27.867592 66.847,24.4472789 66.887,24.4152666 C67.094,24.2472021 67.226,24.0031083 67.254,23.7370062 C67.28,23.470904 67.2,23.2058022 67.03,22.9997231 C66.963,22.9196924 60.408,14.9726413 58.906,12.9138509 C58.73,12.6727583 58.457,12.5227007 58.159,12.5046938 C57.86,12.4826853 57.572,12.601731 57.368,12.8198148 C54.848,15.5148495 51.866,16.9994194 48.968,16.9994194 C45.764,16.9994194 43.244,15.5718713 40.794,12.3706423 C40.415,11.8764526 39.585,11.8764526 39.206,12.3706423 C36.755,15.5718713 34.235,16.9994194 31.031,16.9994194 C28.133,16.9994194 25.151,15.5148495 22.631,12.8198148 C22.427,12.601731 22.137,12.4776834 21.84,12.5046938 C21.543,12.5227007 21.269,12.6727583 21.093,12.9138509 C19.591,14.9726413 13.036,22.9196924 12.969,22.9997231 C12.8,23.2058022 12.72,23.470904 12.747,23.7360058 C12.773,24.0011076 12.904,24.2452013 13.11,24.4132658 C13.152,24.4472789 17.268,27.867592 17.268,33.1556222 C17.268,35.6675867 16.202,37.5052922 14.967,39.6341095 C13.576,42.0310298 12,44.7470725 12,48.7756192 C12,55.487196 17.477,60.4781121 26.652,62.1267451 C33.559,63.3682217 39.334,67.7489036 39.391,67.7939209 C39.57,67.9309735 39.785,68 40,68 C40.214,68 40.429,67.9309735 40.609,67.7929205 C40.667,67.7489036 46.422,63.3712229 53.347,62.1267451 C62.522,60.4781121 68,55.487196 68,48.7756192 C68,44.7470725 66.423,42.0310298 65.032,39.6341095" id="Amazon-Route-53-Icon_64_Squid" fill="#FFFFFF"></path>
    </g>
</g></g>
<text x="86" y="44" fill="#f4f1f8" font-family="sans-serif" font-size="18" font-weight="600">Route 53 private DNS sharing</text>
<text x="600" y="44" text-anchor="middle" fill="#94a3b8" font-family="sans-serif" font-size="13">Network owns PHZ · workload VPCs associate · shared resolution</text>
<rect x="36" y="66" width="352" height="422" rx="10" fill="#1e2936" stroke="#FF9900" stroke-width="1.5" opacity="0.95"/>
  <text x="212" y="94" text-anchor="middle" fill="#FF9900" font-family="sans-serif" font-size="15" font-weight="700">Network Account</text>
<rect x="424" y="66" width="352" height="422" rx="10" fill="#1e2936" stroke="#7B68EE" stroke-width="1.5" opacity="0.95"/>
  <text x="600" y="94" text-anchor="middle" fill="#7B68EE" font-family="sans-serif" font-size="15" font-weight="700">Dev Account</text>
<rect x="812" y="66" width="352" height="422" rx="10" fill="#1e2936" stroke="#48A9A6" stroke-width="1.5" opacity="0.95"/>
  <text x="988" y="94" text-anchor="middle" fill="#48A9A6" font-family="sans-serif" font-size="15" font-weight="700">Sandbox Account</text>
<rect x="40" y="102" width="344" height="185" rx="6" fill="#243040" stroke="#3d4f63" stroke-width="1"/>
  <text x="50" y="119" fill="#94a3b8" font-family="sans-serif" font-size="12" font-weight="600">ap-southeast-2</text>
<rect x="40" y="295" width="344" height="185" rx="6" fill="#243040" stroke="#3d4f63" stroke-width="1"/>
  <text x="50" y="312" fill="#94a3b8" font-family="sans-serif" font-size="12" font-weight="600">ap-southeast-6</text>
<rect x="428" y="102" width="344" height="185" rx="6" fill="#243040" stroke="#3d4f63" stroke-width="1"/>
  <text x="438" y="119" fill="#94a3b8" font-family="sans-serif" font-size="12" font-weight="600">ap-southeast-2</text>
<rect x="428" y="295" width="344" height="185" rx="6" fill="#243040" stroke="#3d4f63" stroke-width="1"/>
  <text x="438" y="312" fill="#94a3b8" font-family="sans-serif" font-size="12" font-weight="600">ap-southeast-6</text>
<rect x="816" y="102" width="344" height="185" rx="6" fill="#243040" stroke="#3d4f63" stroke-width="1"/>
  <text x="826" y="119" fill="#94a3b8" font-family="sans-serif" font-size="12" font-weight="600">ap-southeast-2</text>
<rect x="816" y="295" width="344" height="185" rx="6" fill="#243040" stroke="#3d4f63" stroke-width="1"/>
  <text x="826" y="312" fill="#94a3b8" font-family="sans-serif" font-size="12" font-weight="600">ap-southeast-6</text>
<rect x="396" y="102" width="20" height="390" rx="4" fill="#7B68EE" opacity="0.06"/>
  <rect x="820" y="102" width="20" height="390" rx="4" fill="#7B68EE" opacity="0.06"/>
<path d="M 212 176 L 212 194 L 124 194 L 124 226" stroke="#FF9900" stroke-width="1.5" fill="none"/>
  <g fill="#FF9900"><polygon points="119,221 124,226 129,221"/></g>
<path d="M 212 176 L 212 194 L 300 194 L 300 226" stroke="#FF9900" stroke-width="1.5" fill="none"/>
  <g fill="#FF9900"><polygon points="295,221 300,226 305,221"/></g>
<path d="M 212 176 L 212 192 L 188 192 L 188 371 L 212 371" stroke="#FF9900" stroke-width="1.5" fill="none"/>
  <g fill="#FF9900"><polygon points="207,366 212,371 217,366"/></g>
<path d="M 241 149 L 406 149 L 406 457" stroke="#7B68EE" stroke-width="1.5" fill="none" stroke-dasharray="7 5"/>
<path d="M 406 204 L 572 204" stroke="#7B68EE" stroke-width="1.5" fill="none" stroke-dasharray="7 5"/><g fill="#7B68EE"><polygon points="199,NaN 204,NaN 199,NaN" fill="currentColor"/></g>
<path d="M 406 397 L 572 397" stroke="#7B68EE" stroke-width="1.5" fill="none" stroke-dasharray="7 5"/><g fill="#7B68EE"><polygon points="392,NaN 397,NaN 392,NaN" fill="currentColor"/></g>
<path d="M 406 168 L 830 168 L 830 204 L 960 204" stroke="#7B68EE" stroke-width="1.5" fill="none" stroke-dasharray="7 5"/><g fill="#7B68EE"><polygon points="199,NaN 204,NaN 199,NaN" fill="currentColor"/></g>
<path d="M 406 433 L 830 433 L 830 397 L 960 397" stroke="#7B68EE" stroke-width="1.5" fill="none" stroke-dasharray="7 5"/><g fill="#7B68EE"><polygon points="392,NaN 397,NaN 392,NaN" fill="currentColor"/></g>
<g transform="translate(189 126) scale(0.9583333333333334)"><g fill="#FF9900">
    <title>Icon-Resource/Networking-and-Content-Delivery/Res_Amazon-Route-53-Hosted-Zone_48</title>
    <g id="Icon-Resource/Networking-and-Content-Delivery/Res_Amazon-Route-53-Hosted-Zone_48" stroke="none" stroke-width="1" fill="none" fill-rule="evenodd">
        <path d="M33.4488,39.3643 C28.8848,40.1843 25.0338,42.5853 23.5848,43.5833 C22.1358,42.5853 18.2848,40.1843 13.7198,39.3643 C11.4398,38.9553 3.9998,37.1363 3.9998,30.9253 C3.9998,28.3293 4.9828,26.6353 6.0238,24.8433 C7.0038,23.1543 8.0158,21.4103 8.0158,19.0203 C8.0158,15.4343 6.0408,12.8533 4.9278,11.6843 C6.0608,10.3063 8.5278,7.2973 9.8918,5.5523 C11.9708,7.4423 14.3708,8.4703 16.7468,8.4703 C19.3928,8.4703 21.5918,7.4293 23.5848,5.2123 C25.5768,7.4293 27.7748,8.4703 30.4228,8.4703 C32.7988,8.4703 35.1968,7.4423 37.2758,5.5523 C38.6398,7.2963 41.1068,10.3063 42.2408,11.6843 C41.1278,12.8533 39.1518,15.4343 39.1518,19.0203 C39.1518,21.4103 40.1648,23.1543 41.1438,24.8433 C42.1848,26.6353 43.1688,28.3293 43.1688,30.9253 C43.1688,37.1363 35.7288,38.9553 33.4488,39.3643 M42.8748,23.8383 C41.9498,22.2463 41.1518,20.8713 41.1518,19.0203 C41.1518,15.1103 44.2038,12.5673 44.2328,12.5443 L45.0178,11.9093 L44.3758,11.1303 C44.3248,11.0693 39.3318,5.0173 38.1898,3.4543 L37.4768,2.4783 L36.6518,3.3613 C34.7758,5.3663 32.5638,6.4703 30.4228,6.4703 C28.0598,6.4703 26.1968,5.4123 24.3788,3.0373 L23.5848,2.0003 L22.7908,3.0363 C20.9718,5.4113 19.1078,6.4703 16.7468,6.4703 C14.6038,6.4703 12.3918,5.3663 10.5158,3.3613 L9.6898,2.4773 L8.9778,3.4553 C7.8378,5.0173 2.8448,11.0693 2.7938,11.1303 L2.1508,11.9093 L2.9358,12.5443 C2.9678,12.5693 6.0158,15.0803 6.0158,19.0203 C6.0158,20.8713 5.2188,22.2463 4.2938,23.8383 C3.2188,25.6913 1.9998,27.7913 1.9998,30.9253 C1.9998,36.1653 6.2488,40.0553 13.3668,41.3333 C18.5718,42.2673 22.9318,45.5733 22.9758,45.6063 L23.5858,46.0723 L24.1928,45.6063 C24.2368,45.5733 28.5968,42.2673 33.8028,41.3333 C40.9198,40.0553 45.1688,36.1653 45.1688,30.9253 C45.1688,27.7913 43.9498,25.6913 42.8748,23.8383" id="AWS-Amazon-Route-53-Hosted-zone_Resource-Icon_dark-bg" fill="#8C4FFF"></path>
    </g>
</g></g>
<text x="212" y="192" text-anchor="middle" fill="#f4f1f8" font-family="sans-serif" font-size="13" font-weight="600">Platform_Zone</text>
<text x="212" y="207" text-anchor="middle" fill="#9b92b0" font-family="sans-serif" font-size="11">platform.demo.local</text>
<g transform="translate(104 232) scale(0.5)"><g fill="#FF9900">
    <title>Icon-Architecture/64/Arch_Amazon-Virtual-Private-Cloud_64</title>
    <g id="Icon-Architecture/64/Arch_Amazon-Virtual-Private-Cloud_64" stroke="none" stroke-width="1" fill="none" fill-rule="evenodd">
        <g id="Icon-Architecture-BG/64/Networking-Content-Delivery" fill="#8C4FFF">
            <rect id="Rectangle" x="0" y="0" width="80" height="80"></rect>
        </g>
        <path d="M61,41.3717025 L55.5,39.1717025 L55.5,59.1227025 C57.106,58.9627025 58.401,58.4347025 59.321,57.5007025 C61.021,55.7727025 61.001,53.2397025 61,53.2147025 L61,41.3717025 Z M53.5,59.1357025 L53.5,39.1717025 L48,41.3717025 L48,53.1947025 C48.007,53.4017025 48.234,58.5517025 53.5,59.1357025 L53.5,59.1357025 Z M63,53.1947025 C63.003,53.3077025 63.053,56.5417025 60.765,58.8847025 C59.269,60.4177025 57.16,61.1947025 54.5,61.1947025 C47.927,61.1947025 46.065,55.9767025 46,53.2187025 L46,40.6947025 C46,40.2857025 46.249,39.9177025 46.629,39.7657025 L54.129,36.7657025 C54.367,36.6707025 54.633,36.6707025 54.871,36.7657025 L62.371,39.7657025 C62.751,39.9177025 63,40.2857025 63,40.6947025 L63,53.1947025 Z M66.001,51.2287025 L66,37.8717025 L54.5,33.2717025 L43,37.8717025 L43,51.1947025 C42.998,51.2857025 42.865,57.4227025 46.534,61.1987025 C48.466,63.1867025 51.146,64.1947025 54.5,64.1947025 C57.877,64.1947025 60.57,63.1797025 62.504,61.1787025 C66.168,57.3867025 66.003,51.2897025 66.001,51.2287025 L66.001,51.2287025 Z M63.942,62.5677025 C61.617,64.9747025 58.44,66.1947025 54.5,66.1947025 C50.579,66.1947025 47.413,64.9787025 45.09,62.5807025 C40.831,58.1877025 40.991,51.4477025 41,51.1637025 L41,37.1947025 C41,36.7857025 41.249,36.4177025 41.629,36.2657025 L54.129,31.2657025 C54.367,31.1707025 54.633,31.1707025 54.871,31.2657025 L67.371,36.2657025 C67.751,36.4177025 68,36.7857025 68,37.1947025 L68,51.1947025 C68.009,51.4447025 68.189,58.1727025 63.942,62.5677025 L63.942,62.5677025 Z M23.055,47.1947025 L38,47.1947025 L38,49.1947025 L23.055,49.1947025 C16.977,49.1947025 12.337,45.1427025 12.024,39.5597025 C12.002,39.3317025 12,39.0657025 12,38.7997025 C12,31.9307025 16.803,29.4017025 19.604,28.5117025 C19.584,28.1907025 19.574,27.8657025 19.574,27.5387025 C19.574,22.0857025 23.464,16.3807025 28.621,14.2687025 C34.677,11.7887025 41.062,12.9897025 45.695,17.4757025 C47.256,18.9967025 48.446,20.6207025 49.307,22.4097025 C50.513,21.3747025 51.969,20.8187025 53.529,20.8187025 C56.834,20.8187025 60.33,23.4127025 60.931,28.3817025 C63.114,28.9317025 65.854,30.0997025 67.788,32.5797025 L66.212,33.8097025 C64.43,31.5237025 61.741,30.5717025 59.8,30.1737025 C59.355,30.0837025 59.028,29.7057025 59.002,29.2537025 C58.741,24.8327025 55.982,22.8187025 53.529,22.8187025 C52.067,22.8187025 50.771,23.5087025 49.78,24.8137025 C49.559,25.1057025 49.199,25.2567025 48.835,25.1987025 C48.474,25.1437025 48.17,24.8967025 48.045,24.5537025 C47.278,22.4637025 46.054,20.6177025 44.302,18.9107025 C40.258,14.9967025 34.676,13.9517025 29.379,16.1197025 C24.93,17.9417025 21.574,22.8507025 21.574,27.5387025 C21.574,28.0797025 21.605,28.6147025 21.668,29.1277025 C21.729,29.6287025 21.405,30.0967025 20.915,30.2187025 C18.333,30.8577025 14,32.8237025 14,38.7997025 C14,39.0017025 13.998,39.2047025 14.018,39.4077025 C14.272,43.9357025 18.072,47.1947025 23.055,47.1947025 L23.055,47.1947025 Z" id="Amazon-Virtual-Private-Cloud_Icon_64_Squid" fill="#FFFFFF"></path>
    </g>
</g></g>
<text x="124" y="288" text-anchor="middle" fill="#f4f1f8" font-family="sans-serif" font-size="13" font-weight="600">VPC primary</text>
<text x="124" y="303" text-anchor="middle" fill="#9b92b0" font-family="sans-serif" font-size="11">10.0.0.0/16</text>
<g transform="translate(280 232) scale(0.5)"><g fill="#FF9900">
    <title>Icon-Architecture/64/Arch_Amazon-Virtual-Private-Cloud_64</title>
    <g id="Icon-Architecture/64/Arch_Amazon-Virtual-Private-Cloud_64" stroke="none" stroke-width="1" fill="none" fill-rule="evenodd">
        <g id="Icon-Architecture-BG/64/Networking-Content-Delivery" fill="#8C4FFF">
            <rect id="Rectangle" x="0" y="0" width="80" height="80"></rect>
        </g>
        <path d="M61,41.3717025 L55.5,39.1717025 L55.5,59.1227025 C57.106,58.9627025 58.401,58.4347025 59.321,57.5007025 C61.021,55.7727025 61.001,53.2397025 61,53.2147025 L61,41.3717025 Z M53.5,59.1357025 L53.5,39.1717025 L48,41.3717025 L48,53.1947025 C48.007,53.4017025 48.234,58.5517025 53.5,59.1357025 L53.5,59.1357025 Z M63,53.1947025 C63.003,53.3077025 63.053,56.5417025 60.765,58.8847025 C59.269,60.4177025 57.16,61.1947025 54.5,61.1947025 C47.927,61.1947025 46.065,55.9767025 46,53.2187025 L46,40.6947025 C46,40.2857025 46.249,39.9177025 46.629,39.7657025 L54.129,36.7657025 C54.367,36.6707025 54.633,36.6707025 54.871,36.7657025 L62.371,39.7657025 C62.751,39.9177025 63,40.2857025 63,40.6947025 L63,53.1947025 Z M66.001,51.2287025 L66,37.8717025 L54.5,33.2717025 L43,37.8717025 L43,51.1947025 C42.998,51.2857025 42.865,57.4227025 46.534,61.1987025 C48.466,63.1867025 51.146,64.1947025 54.5,64.1947025 C57.877,64.1947025 60.57,63.1797025 62.504,61.1787025 C66.168,57.3867025 66.003,51.2897025 66.001,51.2287025 L66.001,51.2287025 Z M63.942,62.5677025 C61.617,64.9747025 58.44,66.1947025 54.5,66.1947025 C50.579,66.1947025 47.413,64.9787025 45.09,62.5807025 C40.831,58.1877025 40.991,51.4477025 41,51.1637025 L41,37.1947025 C41,36.7857025 41.249,36.4177025 41.629,36.2657025 L54.129,31.2657025 C54.367,31.1707025 54.633,31.1707025 54.871,31.2657025 L67.371,36.2657025 C67.751,36.4177025 68,36.7857025 68,37.1947025 L68,51.1947025 C68.009,51.4447025 68.189,58.1727025 63.942,62.5677025 L63.942,62.5677025 Z M23.055,47.1947025 L38,47.1947025 L38,49.1947025 L23.055,49.1947025 C16.977,49.1947025 12.337,45.1427025 12.024,39.5597025 C12.002,39.3317025 12,39.0657025 12,38.7997025 C12,31.9307025 16.803,29.4017025 19.604,28.5117025 C19.584,28.1907025 19.574,27.8657025 19.574,27.5387025 C19.574,22.0857025 23.464,16.3807025 28.621,14.2687025 C34.677,11.7887025 41.062,12.9897025 45.695,17.4757025 C47.256,18.9967025 48.446,20.6207025 49.307,22.4097025 C50.513,21.3747025 51.969,20.8187025 53.529,20.8187025 C56.834,20.8187025 60.33,23.4127025 60.931,28.3817025 C63.114,28.9317025 65.854,30.0997025 67.788,32.5797025 L66.212,33.8097025 C64.43,31.5237025 61.741,30.5717025 59.8,30.1737025 C59.355,30.0837025 59.028,29.7057025 59.002,29.2537025 C58.741,24.8327025 55.982,22.8187025 53.529,22.8187025 C52.067,22.8187025 50.771,23.5087025 49.78,24.8137025 C49.559,25.1057025 49.199,25.2567025 48.835,25.1987025 C48.474,25.1437025 48.17,24.8967025 48.045,24.5537025 C47.278,22.4637025 46.054,20.6177025 44.302,18.9107025 C40.258,14.9967025 34.676,13.9517025 29.379,16.1197025 C24.93,17.9417025 21.574,22.8507025 21.574,27.5387025 C21.574,28.0797025 21.605,28.6147025 21.668,29.1277025 C21.729,29.6287025 21.405,30.0967025 20.915,30.2187025 C18.333,30.8577025 14,32.8237025 14,38.7997025 C14,39.0017025 13.998,39.2047025 14.018,39.4077025 C14.272,43.9357025 18.072,47.1947025 23.055,47.1947025 L23.055,47.1947025 Z" id="Amazon-Virtual-Private-Cloud_Icon_64_Squid" fill="#FFFFFF"></path>
    </g>
</g></g>
<text x="300" y="288" text-anchor="middle" fill="#f4f1f8" font-family="sans-serif" font-size="13" font-weight="600">VPC secondary</text>
<text x="300" y="303" text-anchor="middle" fill="#9b92b0" font-family="sans-serif" font-size="11">10.3.0.0/16</text>
<g transform="translate(192 377) scale(0.5)"><g fill="#FF9900">
    <title>Icon-Architecture/64/Arch_Amazon-Virtual-Private-Cloud_64</title>
    <g id="Icon-Architecture/64/Arch_Amazon-Virtual-Private-Cloud_64" stroke="none" stroke-width="1" fill="none" fill-rule="evenodd">
        <g id="Icon-Architecture-BG/64/Networking-Content-Delivery" fill="#8C4FFF">
            <rect id="Rectangle" x="0" y="0" width="80" height="80"></rect>
        </g>
        <path d="M61,41.3717025 L55.5,39.1717025 L55.5,59.1227025 C57.106,58.9627025 58.401,58.4347025 59.321,57.5007025 C61.021,55.7727025 61.001,53.2397025 61,53.2147025 L61,41.3717025 Z M53.5,59.1357025 L53.5,39.1717025 L48,41.3717025 L48,53.1947025 C48.007,53.4017025 48.234,58.5517025 53.5,59.1357025 L53.5,59.1357025 Z M63,53.1947025 C63.003,53.3077025 63.053,56.5417025 60.765,58.8847025 C59.269,60.4177025 57.16,61.1947025 54.5,61.1947025 C47.927,61.1947025 46.065,55.9767025 46,53.2187025 L46,40.6947025 C46,40.2857025 46.249,39.9177025 46.629,39.7657025 L54.129,36.7657025 C54.367,36.6707025 54.633,36.6707025 54.871,36.7657025 L62.371,39.7657025 C62.751,39.9177025 63,40.2857025 63,40.6947025 L63,53.1947025 Z M66.001,51.2287025 L66,37.8717025 L54.5,33.2717025 L43,37.8717025 L43,51.1947025 C42.998,51.2857025 42.865,57.4227025 46.534,61.1987025 C48.466,63.1867025 51.146,64.1947025 54.5,64.1947025 C57.877,64.1947025 60.57,63.1797025 62.504,61.1787025 C66.168,57.3867025 66.003,51.2897025 66.001,51.2287025 L66.001,51.2287025 Z M63.942,62.5677025 C61.617,64.9747025 58.44,66.1947025 54.5,66.1947025 C50.579,66.1947025 47.413,64.9787025 45.09,62.5807025 C40.831,58.1877025 40.991,51.4477025 41,51.1637025 L41,37.1947025 C41,36.7857025 41.249,36.4177025 41.629,36.2657025 L54.129,31.2657025 C54.367,31.1707025 54.633,31.1707025 54.871,31.2657025 L67.371,36.2657025 C67.751,36.4177025 68,36.7857025 68,37.1947025 L68,51.1947025 C68.009,51.4447025 68.189,58.1727025 63.942,62.5677025 L63.942,62.5677025 Z M23.055,47.1947025 L38,47.1947025 L38,49.1947025 L23.055,49.1947025 C16.977,49.1947025 12.337,45.1427025 12.024,39.5597025 C12.002,39.3317025 12,39.0657025 12,38.7997025 C12,31.9307025 16.803,29.4017025 19.604,28.5117025 C19.584,28.1907025 19.574,27.8657025 19.574,27.5387025 C19.574,22.0857025 23.464,16.3807025 28.621,14.2687025 C34.677,11.7887025 41.062,12.9897025 45.695,17.4757025 C47.256,18.9967025 48.446,20.6207025 49.307,22.4097025 C50.513,21.3747025 51.969,20.8187025 53.529,20.8187025 C56.834,20.8187025 60.33,23.4127025 60.931,28.3817025 C63.114,28.9317025 65.854,30.0997025 67.788,32.5797025 L66.212,33.8097025 C64.43,31.5237025 61.741,30.5717025 59.8,30.1737025 C59.355,30.0837025 59.028,29.7057025 59.002,29.2537025 C58.741,24.8327025 55.982,22.8187025 53.529,22.8187025 C52.067,22.8187025 50.771,23.5087025 49.78,24.8137025 C49.559,25.1057025 49.199,25.2567025 48.835,25.1987025 C48.474,25.1437025 48.17,24.8967025 48.045,24.5537025 C47.278,22.4637025 46.054,20.6177025 44.302,18.9107025 C40.258,14.9967025 34.676,13.9517025 29.379,16.1197025 C24.93,17.9417025 21.574,22.8507025 21.574,27.5387025 C21.574,28.0797025 21.605,28.6147025 21.668,29.1277025 C21.729,29.6287025 21.405,30.0967025 20.915,30.2187025 C18.333,30.8577025 14,32.8237025 14,38.7997025 C14,39.0017025 13.998,39.2047025 14.018,39.4077025 C14.272,43.9357025 18.072,47.1947025 23.055,47.1947025 L23.055,47.1947025 Z" id="Amazon-Virtual-Private-Cloud_Icon_64_Squid" fill="#FFFFFF"></path>
    </g>
</g></g>
<text x="212" y="433" text-anchor="middle" fill="#f4f1f8" font-family="sans-serif" font-size="13" font-weight="600">VPC network</text>
<text x="212" y="448" text-anchor="middle" fill="#9b92b0" font-family="sans-serif" font-size="11">10.10.0.0/16</text>
<g transform="translate(580 184) scale(0.5)"><g fill="#7B68EE">
    <title>Icon-Architecture/64/Arch_Amazon-Virtual-Private-Cloud_64</title>
    <g id="Icon-Architecture/64/Arch_Amazon-Virtual-Private-Cloud_64" stroke="none" stroke-width="1" fill="none" fill-rule="evenodd">
        <g id="Icon-Architecture-BG/64/Networking-Content-Delivery" fill="#8C4FFF">
            <rect id="Rectangle" x="0" y="0" width="80" height="80"></rect>
        </g>
        <path d="M61,41.3717025 L55.5,39.1717025 L55.5,59.1227025 C57.106,58.9627025 58.401,58.4347025 59.321,57.5007025 C61.021,55.7727025 61.001,53.2397025 61,53.2147025 L61,41.3717025 Z M53.5,59.1357025 L53.5,39.1717025 L48,41.3717025 L48,53.1947025 C48.007,53.4017025 48.234,58.5517025 53.5,59.1357025 L53.5,59.1357025 Z M63,53.1947025 C63.003,53.3077025 63.053,56.5417025 60.765,58.8847025 C59.269,60.4177025 57.16,61.1947025 54.5,61.1947025 C47.927,61.1947025 46.065,55.9767025 46,53.2187025 L46,40.6947025 C46,40.2857025 46.249,39.9177025 46.629,39.7657025 L54.129,36.7657025 C54.367,36.6707025 54.633,36.6707025 54.871,36.7657025 L62.371,39.7657025 C62.751,39.9177025 63,40.2857025 63,40.6947025 L63,53.1947025 Z M66.001,51.2287025 L66,37.8717025 L54.5,33.2717025 L43,37.8717025 L43,51.1947025 C42.998,51.2857025 42.865,57.4227025 46.534,61.1987025 C48.466,63.1867025 51.146,64.1947025 54.5,64.1947025 C57.877,64.1947025 60.57,63.1797025 62.504,61.1787025 C66.168,57.3867025 66.003,51.2897025 66.001,51.2287025 L66.001,51.2287025 Z M63.942,62.5677025 C61.617,64.9747025 58.44,66.1947025 54.5,66.1947025 C50.579,66.1947025 47.413,64.9787025 45.09,62.5807025 C40.831,58.1877025 40.991,51.4477025 41,51.1637025 L41,37.1947025 C41,36.7857025 41.249,36.4177025 41.629,36.2657025 L54.129,31.2657025 C54.367,31.1707025 54.633,31.1707025 54.871,31.2657025 L67.371,36.2657025 C67.751,36.4177025 68,36.7857025 68,37.1947025 L68,51.1947025 C68.009,51.4447025 68.189,58.1727025 63.942,62.5677025 L63.942,62.5677025 Z M23.055,47.1947025 L38,47.1947025 L38,49.1947025 L23.055,49.1947025 C16.977,49.1947025 12.337,45.1427025 12.024,39.5597025 C12.002,39.3317025 12,39.0657025 12,38.7997025 C12,31.9307025 16.803,29.4017025 19.604,28.5117025 C19.584,28.1907025 19.574,27.8657025 19.574,27.5387025 C19.574,22.0857025 23.464,16.3807025 28.621,14.2687025 C34.677,11.7887025 41.062,12.9897025 45.695,17.4757025 C47.256,18.9967025 48.446,20.6207025 49.307,22.4097025 C50.513,21.3747025 51.969,20.8187025 53.529,20.8187025 C56.834,20.8187025 60.33,23.4127025 60.931,28.3817025 C63.114,28.9317025 65.854,30.0997025 67.788,32.5797025 L66.212,33.8097025 C64.43,31.5237025 61.741,30.5717025 59.8,30.1737025 C59.355,30.0837025 59.028,29.7057025 59.002,29.2537025 C58.741,24.8327025 55.982,22.8187025 53.529,22.8187025 C52.067,22.8187025 50.771,23.5087025 49.78,24.8137025 C49.559,25.1057025 49.199,25.2567025 48.835,25.1987025 C48.474,25.1437025 48.17,24.8967025 48.045,24.5537025 C47.278,22.4637025 46.054,20.6177025 44.302,18.9107025 C40.258,14.9967025 34.676,13.9517025 29.379,16.1197025 C24.93,17.9417025 21.574,22.8507025 21.574,27.5387025 C21.574,28.0797025 21.605,28.6147025 21.668,29.1277025 C21.729,29.6287025 21.405,30.0967025 20.915,30.2187025 C18.333,30.8577025 14,32.8237025 14,38.7997025 C14,39.0017025 13.998,39.2047025 14.018,39.4077025 C14.272,43.9357025 18.072,47.1947025 23.055,47.1947025 L23.055,47.1947025 Z" id="Amazon-Virtual-Private-Cloud_Icon_64_Squid" fill="#FFFFFF"></path>
    </g>
</g></g>
<text x="600" y="240" text-anchor="middle" fill="#f4f1f8" font-family="sans-serif" font-size="13" font-weight="600">VPC dev</text>
<text x="600" y="255" text-anchor="middle" fill="#9b92b0" font-family="sans-serif" font-size="11">10.1.0.0/16</text>
<g transform="translate(580 377) scale(0.5)"><g fill="#7B68EE">
    <title>Icon-Architecture/64/Arch_Amazon-Virtual-Private-Cloud_64</title>
    <g id="Icon-Architecture/64/Arch_Amazon-Virtual-Private-Cloud_64" stroke="none" stroke-width="1" fill="none" fill-rule="evenodd">
        <g id="Icon-Architecture-BG/64/Networking-Content-Delivery" fill="#8C4FFF">
            <rect id="Rectangle" x="0" y="0" width="80" height="80"></rect>
        </g>
        <path d="M61,41.3717025 L55.5,39.1717025 L55.5,59.1227025 C57.106,58.9627025 58.401,58.4347025 59.321,57.5007025 C61.021,55.7727025 61.001,53.2397025 61,53.2147025 L61,41.3717025 Z M53.5,59.1357025 L53.5,39.1717025 L48,41.3717025 L48,53.1947025 C48.007,53.4017025 48.234,58.5517025 53.5,59.1357025 L53.5,59.1357025 Z M63,53.1947025 C63.003,53.3077025 63.053,56.5417025 60.765,58.8847025 C59.269,60.4177025 57.16,61.1947025 54.5,61.1947025 C47.927,61.1947025 46.065,55.9767025 46,53.2187025 L46,40.6947025 C46,40.2857025 46.249,39.9177025 46.629,39.7657025 L54.129,36.7657025 C54.367,36.6707025 54.633,36.6707025 54.871,36.7657025 L62.371,39.7657025 C62.751,39.9177025 63,40.2857025 63,40.6947025 L63,53.1947025 Z M66.001,51.2287025 L66,37.8717025 L54.5,33.2717025 L43,37.8717025 L43,51.1947025 C42.998,51.2857025 42.865,57.4227025 46.534,61.1987025 C48.466,63.1867025 51.146,64.1947025 54.5,64.1947025 C57.877,64.1947025 60.57,63.1797025 62.504,61.1787025 C66.168,57.3867025 66.003,51.2897025 66.001,51.2287025 L66.001,51.2287025 Z M63.942,62.5677025 C61.617,64.9747025 58.44,66.1947025 54.5,66.1947025 C50.579,66.1947025 47.413,64.9787025 45.09,62.5807025 C40.831,58.1877025 40.991,51.4477025 41,51.1637025 L41,37.1947025 C41,36.7857025 41.249,36.4177025 41.629,36.2657025 L54.129,31.2657025 C54.367,31.1707025 54.633,31.1707025 54.871,31.2657025 L67.371,36.2657025 C67.751,36.4177025 68,36.7857025 68,37.1947025 L68,51.1947025 C68.009,51.4447025 68.189,58.1727025 63.942,62.5677025 L63.942,62.5677025 Z M23.055,47.1947025 L38,47.1947025 L38,49.1947025 L23.055,49.1947025 C16.977,49.1947025 12.337,45.1427025 12.024,39.5597025 C12.002,39.3317025 12,39.0657025 12,38.7997025 C12,31.9307025 16.803,29.4017025 19.604,28.5117025 C19.584,28.1907025 19.574,27.8657025 19.574,27.5387025 C19.574,22.0857025 23.464,16.3807025 28.621,14.2687025 C34.677,11.7887025 41.062,12.9897025 45.695,17.4757025 C47.256,18.9967025 48.446,20.6207025 49.307,22.4097025 C50.513,21.3747025 51.969,20.8187025 53.529,20.8187025 C56.834,20.8187025 60.33,23.4127025 60.931,28.3817025 C63.114,28.9317025 65.854,30.0997025 67.788,32.5797025 L66.212,33.8097025 C64.43,31.5237025 61.741,30.5717025 59.8,30.1737025 C59.355,30.0837025 59.028,29.7057025 59.002,29.2537025 C58.741,24.8327025 55.982,22.8187025 53.529,22.8187025 C52.067,22.8187025 50.771,23.5087025 49.78,24.8137025 C49.559,25.1057025 49.199,25.2567025 48.835,25.1987025 C48.474,25.1437025 48.17,24.8967025 48.045,24.5537025 C47.278,22.4637025 46.054,20.6177025 44.302,18.9107025 C40.258,14.9967025 34.676,13.9517025 29.379,16.1197025 C24.93,17.9417025 21.574,22.8507025 21.574,27.5387025 C21.574,28.0797025 21.605,28.6147025 21.668,29.1277025 C21.729,29.6287025 21.405,30.0967025 20.915,30.2187025 C18.333,30.8577025 14,32.8237025 14,38.7997025 C14,39.0017025 13.998,39.2047025 14.018,39.4077025 C14.272,43.9357025 18.072,47.1947025 23.055,47.1947025 L23.055,47.1947025 Z" id="Amazon-Virtual-Private-Cloud_Icon_64_Squid" fill="#FFFFFF"></path>
    </g>
</g></g>
<text x="600" y="433" text-anchor="middle" fill="#f4f1f8" font-family="sans-serif" font-size="13" font-weight="600">VPC dev</text>
<text x="600" y="448" text-anchor="middle" fill="#9b92b0" font-family="sans-serif" font-size="11">10.11.0.0/16</text>
<g transform="translate(968 184) scale(0.5)"><g fill="#48A9A6">
    <title>Icon-Architecture/64/Arch_Amazon-Virtual-Private-Cloud_64</title>
    <g id="Icon-Architecture/64/Arch_Amazon-Virtual-Private-Cloud_64" stroke="none" stroke-width="1" fill="none" fill-rule="evenodd">
        <g id="Icon-Architecture-BG/64/Networking-Content-Delivery" fill="#8C4FFF">
            <rect id="Rectangle" x="0" y="0" width="80" height="80"></rect>
        </g>
        <path d="M61,41.3717025 L55.5,39.1717025 L55.5,59.1227025 C57.106,58.9627025 58.401,58.4347025 59.321,57.5007025 C61.021,55.7727025 61.001,53.2397025 61,53.2147025 L61,41.3717025 Z M53.5,59.1357025 L53.5,39.1717025 L48,41.3717025 L48,53.1947025 C48.007,53.4017025 48.234,58.5517025 53.5,59.1357025 L53.5,59.1357025 Z M63,53.1947025 C63.003,53.3077025 63.053,56.5417025 60.765,58.8847025 C59.269,60.4177025 57.16,61.1947025 54.5,61.1947025 C47.927,61.1947025 46.065,55.9767025 46,53.2187025 L46,40.6947025 C46,40.2857025 46.249,39.9177025 46.629,39.7657025 L54.129,36.7657025 C54.367,36.6707025 54.633,36.6707025 54.871,36.7657025 L62.371,39.7657025 C62.751,39.9177025 63,40.2857025 63,40.6947025 L63,53.1947025 Z M66.001,51.2287025 L66,37.8717025 L54.5,33.2717025 L43,37.8717025 L43,51.1947025 C42.998,51.2857025 42.865,57.4227025 46.534,61.1987025 C48.466,63.1867025 51.146,64.1947025 54.5,64.1947025 C57.877,64.1947025 60.57,63.1797025 62.504,61.1787025 C66.168,57.3867025 66.003,51.2897025 66.001,51.2287025 L66.001,51.2287025 Z M63.942,62.5677025 C61.617,64.9747025 58.44,66.1947025 54.5,66.1947025 C50.579,66.1947025 47.413,64.9787025 45.09,62.5807025 C40.831,58.1877025 40.991,51.4477025 41,51.1637025 L41,37.1947025 C41,36.7857025 41.249,36.4177025 41.629,36.2657025 L54.129,31.2657025 C54.367,31.1707025 54.633,31.1707025 54.871,31.2657025 L67.371,36.2657025 C67.751,36.4177025 68,36.7857025 68,37.1947025 L68,51.1947025 C68.009,51.4447025 68.189,58.1727025 63.942,62.5677025 L63.942,62.5677025 Z M23.055,47.1947025 L38,47.1947025 L38,49.1947025 L23.055,49.1947025 C16.977,49.1947025 12.337,45.1427025 12.024,39.5597025 C12.002,39.3317025 12,39.0657025 12,38.7997025 C12,31.9307025 16.803,29.4017025 19.604,28.5117025 C19.584,28.1907025 19.574,27.8657025 19.574,27.5387025 C19.574,22.0857025 23.464,16.3807025 28.621,14.2687025 C34.677,11.7887025 41.062,12.9897025 45.695,17.4757025 C47.256,18.9967025 48.446,20.6207025 49.307,22.4097025 C50.513,21.3747025 51.969,20.8187025 53.529,20.8187025 C56.834,20.8187025 60.33,23.4127025 60.931,28.3817025 C63.114,28.9317025 65.854,30.0997025 67.788,32.5797025 L66.212,33.8097025 C64.43,31.5237025 61.741,30.5717025 59.8,30.1737025 C59.355,30.0837025 59.028,29.7057025 59.002,29.2537025 C58.741,24.8327025 55.982,22.8187025 53.529,22.8187025 C52.067,22.8187025 50.771,23.5087025 49.78,24.8137025 C49.559,25.1057025 49.199,25.2567025 48.835,25.1987025 C48.474,25.1437025 48.17,24.8967025 48.045,24.5537025 C47.278,22.4637025 46.054,20.6177025 44.302,18.9107025 C40.258,14.9967025 34.676,13.9517025 29.379,16.1197025 C24.93,17.9417025 21.574,22.8507025 21.574,27.5387025 C21.574,28.0797025 21.605,28.6147025 21.668,29.1277025 C21.729,29.6287025 21.405,30.0967025 20.915,30.2187025 C18.333,30.8577025 14,32.8237025 14,38.7997025 C14,39.0017025 13.998,39.2047025 14.018,39.4077025 C14.272,43.9357025 18.072,47.1947025 23.055,47.1947025 L23.055,47.1947025 Z" id="Amazon-Virtual-Private-Cloud_Icon_64_Squid" fill="#FFFFFF"></path>
    </g>
</g></g>
<text x="988" y="240" text-anchor="middle" fill="#f4f1f8" font-family="sans-serif" font-size="13" font-weight="600">VPC sandbox</text>
<text x="988" y="255" text-anchor="middle" fill="#9b92b0" font-family="sans-serif" font-size="11">10.2.0.0/16</text>
<g transform="translate(968 377) scale(0.5)"><g fill="#48A9A6">
    <title>Icon-Architecture/64/Arch_Amazon-Virtual-Private-Cloud_64</title>
    <g id="Icon-Architecture/64/Arch_Amazon-Virtual-Private-Cloud_64" stroke="none" stroke-width="1" fill="none" fill-rule="evenodd">
        <g id="Icon-Architecture-BG/64/Networking-Content-Delivery" fill="#8C4FFF">
            <rect id="Rectangle" x="0" y="0" width="80" height="80"></rect>
        </g>
        <path d="M61,41.3717025 L55.5,39.1717025 L55.5,59.1227025 C57.106,58.9627025 58.401,58.4347025 59.321,57.5007025 C61.021,55.7727025 61.001,53.2397025 61,53.2147025 L61,41.3717025 Z M53.5,59.1357025 L53.5,39.1717025 L48,41.3717025 L48,53.1947025 C48.007,53.4017025 48.234,58.5517025 53.5,59.1357025 L53.5,59.1357025 Z M63,53.1947025 C63.003,53.3077025 63.053,56.5417025 60.765,58.8847025 C59.269,60.4177025 57.16,61.1947025 54.5,61.1947025 C47.927,61.1947025 46.065,55.9767025 46,53.2187025 L46,40.6947025 C46,40.2857025 46.249,39.9177025 46.629,39.7657025 L54.129,36.7657025 C54.367,36.6707025 54.633,36.6707025 54.871,36.7657025 L62.371,39.7657025 C62.751,39.9177025 63,40.2857025 63,40.6947025 L63,53.1947025 Z M66.001,51.2287025 L66,37.8717025 L54.5,33.2717025 L43,37.8717025 L43,51.1947025 C42.998,51.2857025 42.865,57.4227025 46.534,61.1987025 C48.466,63.1867025 51.146,64.1947025 54.5,64.1947025 C57.877,64.1947025 60.57,63.1797025 62.504,61.1787025 C66.168,57.3867025 66.003,51.2897025 66.001,51.2287025 L66.001,51.2287025 Z M63.942,62.5677025 C61.617,64.9747025 58.44,66.1947025 54.5,66.1947025 C50.579,66.1947025 47.413,64.9787025 45.09,62.5807025 C40.831,58.1877025 40.991,51.4477025 41,51.1637025 L41,37.1947025 C41,36.7857025 41.249,36.4177025 41.629,36.2657025 L54.129,31.2657025 C54.367,31.1707025 54.633,31.1707025 54.871,31.2657025 L67.371,36.2657025 C67.751,36.4177025 68,36.7857025 68,37.1947025 L68,51.1947025 C68.009,51.4447025 68.189,58.1727025 63.942,62.5677025 L63.942,62.5677025 Z M23.055,47.1947025 L38,47.1947025 L38,49.1947025 L23.055,49.1947025 C16.977,49.1947025 12.337,45.1427025 12.024,39.5597025 C12.002,39.3317025 12,39.0657025 12,38.7997025 C12,31.9307025 16.803,29.4017025 19.604,28.5117025 C19.584,28.1907025 19.574,27.8657025 19.574,27.5387025 C19.574,22.0857025 23.464,16.3807025 28.621,14.2687025 C34.677,11.7887025 41.062,12.9897025 45.695,17.4757025 C47.256,18.9967025 48.446,20.6207025 49.307,22.4097025 C50.513,21.3747025 51.969,20.8187025 53.529,20.8187025 C56.834,20.8187025 60.33,23.4127025 60.931,28.3817025 C63.114,28.9317025 65.854,30.0997025 67.788,32.5797025 L66.212,33.8097025 C64.43,31.5237025 61.741,30.5717025 59.8,30.1737025 C59.355,30.0837025 59.028,29.7057025 59.002,29.2537025 C58.741,24.8327025 55.982,22.8187025 53.529,22.8187025 C52.067,22.8187025 50.771,23.5087025 49.78,24.8137025 C49.559,25.1057025 49.199,25.2567025 48.835,25.1987025 C48.474,25.1437025 48.17,24.8967025 48.045,24.5537025 C47.278,22.4637025 46.054,20.6177025 44.302,18.9107025 C40.258,14.9967025 34.676,13.9517025 29.379,16.1197025 C24.93,17.9417025 21.574,22.8507025 21.574,27.5387025 C21.574,28.0797025 21.605,28.6147025 21.668,29.1277025 C21.729,29.6287025 21.405,30.0967025 20.915,30.2187025 C18.333,30.8577025 14,32.8237025 14,38.7997025 C14,39.0017025 13.998,39.2047025 14.018,39.4077025 C14.272,43.9357025 18.072,47.1947025 23.055,47.1947025 L23.055,47.1947025 Z" id="Amazon-Virtual-Private-Cloud_Icon_64_Squid" fill="#FFFFFF"></path>
    </g>
</g></g>
<text x="988" y="433" text-anchor="middle" fill="#f4f1f8" font-family="sans-serif" font-size="13" font-weight="600">VPC sandbox</text>
<text x="988" y="448" text-anchor="middle" fill="#9b92b0" font-family="sans-serif" font-size="11">10.12.0.0/16</text>
<line x1="328" y1="510" x2="378" y2="510" stroke="#FF9900" stroke-width="2"/>
  <text x="390" y="515" fill="#94a3b8" font-family="sans-serif" font-size="12">associate (same account)</text>
<line x1="586" y1="510" x2="636" y2="510" stroke="#7B68EE" stroke-width="2" stroke-dasharray="7 5"/>
  <text x="648" y="515" fill="#94a3b8" font-family="sans-serif" font-size="12">auth + associate (cross-account)</text>
</svg>