<?xml version="1.0" encoding="UTF-8"?>
<svg xmlns="http://www.w3.org/2000/svg" width="1200" height="630" viewBox="0 0 1200 630" fill="none">
  <defs><linearGradient id="ogBg" x1="0" y1="0" x2="0" y2="1" gradientUnits="objectBoundingBox">
      <stop stop-color="#232F3E"/>
      <stop offset="1" stop-color="#131a22"/>
    </linearGradient>
    <clipPath id="diagramClip"><rect x="48" y="194" width="1104" height="366" rx="12"/></clipPath>
  </defs>
  <rect width="1200" height="630" rx="12" fill="url(#ogBg)"/>
  <rect x="1" y="1" width="1198" height="628" rx="11" stroke="#FF9900" stroke-width="1" fill="none" opacity="0.35"/>
  <text x="600" y="64" text-anchor="middle" fill="#f4f1f8" font-family="sans-serif" font-size="42" font-weight="700">Route 53 Classic Multi-Account Walkthrough</text>
  <text x="600" y="104" text-anchor="middle" fill="#b8afc8" font-family="sans-serif" font-size="22">Share one private hosted zone across accounts and regions</text>
  <rect x="320" y="136" width="160" height="34" rx="17" fill="#243040" stroke="#7B68EE" stroke-width="1"/>
  <text x="400" y="158" text-anchor="middle" fill="#e8e0f4" font-family="sans-serif" font-size="16" font-weight="600">3 accounts</text>
<rect x="492" y="136" width="148" height="34" rx="17" fill="#243040" stroke="#7B68EE" stroke-width="1"/>
  <text x="566" y="158" text-anchor="middle" fill="#e8e0f4" font-family="sans-serif" font-size="16" font-weight="600">2 regions</text>
<rect x="652" y="136" width="184" height="34" rx="17" fill="#243040" stroke="#7B68EE" stroke-width="1"/>
  <text x="744" y="158" text-anchor="middle" fill="#e8e0f4" font-family="sans-serif" font-size="16" font-weight="600">1 shared PHZ</text>
  <rect x="48" y="194" width="1104" height="366" rx="12" fill="#1a2332" stroke="#7B68EE" stroke-width="1" opacity="0.7"/>
  <g clip-path="url(#diagramClip)"><g transform="translate(221.40221402214024 206) scale(0.6309963099630996)"><rect x="36" y="66" width="352" height="422" rx="10" fill="#1e2936" stroke="#FF9900" stroke-width="1.5" opacity="0.95"/>
  <text x="212" y="94" text-anchor="middle" fill="#FF9900" font-family="sans-serif" font-size="15" font-weight="700">Network Account</text>
<rect x="424" y="66" width="352" height="422" rx="10" fill="#1e2936" stroke="#7B68EE" stroke-width="1.5" opacity="0.95"/>
  <text x="600" y="94" text-anchor="middle" fill="#7B68EE" font-family="sans-serif" font-size="15" font-weight="700">Dev Account</text>
<rect x="812" y="66" width="352" height="422" rx="10" fill="#1e2936" stroke="#48A9A6" stroke-width="1.5" opacity="0.95"/>
  <text x="988" y="94" text-anchor="middle" fill="#48A9A6" font-family="sans-serif" font-size="15" font-weight="700">Sandbox Account</text>
<rect x="40" y="102" width="344" height="185" rx="6" fill="#243040" stroke="#3d4f63" stroke-width="1"/>
  <text x="50" y="119" fill="#94a3b8" font-family="sans-serif" font-size="12" font-weight="600">ap-southeast-2</text>
<rect x="40" y="295" width="344" height="185" rx="6" fill="#243040" stroke="#3d4f63" stroke-width="1"/>
  <text x="50" y="312" fill="#94a3b8" font-family="sans-serif" font-size="12" font-weight="600">ap-southeast-6</text>
<rect x="428" y="102" width="344" height="185" rx="6" fill="#243040" stroke="#3d4f63" stroke-width="1"/>
  <text x="438" y="119" fill="#94a3b8" font-family="sans-serif" font-size="12" font-weight="600">ap-southeast-2</text>
<rect x="428" y="295" width="344" height="185" rx="6" fill="#243040" stroke="#3d4f63" stroke-width="1"/>
  <text x="438" y="312" fill="#94a3b8" font-family="sans-serif" font-size="12" font-weight="600">ap-southeast-6</text>
<rect x="816" y="102" width="344" height="185" rx="6" fill="#243040" stroke="#3d4f63" stroke-width="1"/>
  <text x="826" y="119" fill="#94a3b8" font-family="sans-serif" font-size="12" font-weight="600">ap-southeast-2</text>
<rect x="816" y="295" width="344" height="185" rx="6" fill="#243040" stroke="#3d4f63" stroke-width="1"/>
  <text x="826" y="312" fill="#94a3b8" font-family="sans-serif" font-size="12" font-weight="600">ap-southeast-6</text>
<rect x="396" y="102" width="20" height="390" rx="4" fill="#7B68EE" opacity="0.06"/>
  <rect x="820" y="102" width="20" height="390" rx="4" fill="#7B68EE" opacity="0.06"/>
<path d="M 212 176 L 212 194 L 124 194 L 124 226" stroke="#FF9900" stroke-width="1.5" fill="none"/>
  <g fill="#FF9900"><polygon points="119,221 124,226 129,221"/></g>
<path d="M 212 176 L 212 194 L 300 194 L 300 226" stroke="#FF9900" stroke-width="1.5" fill="none"/>
  <g fill="#FF9900"><polygon points="295,221 300,226 305,221"/></g>
<path d="M 212 176 L 212 192 L 188 192 L 188 371 L 212 371" stroke="#FF9900" stroke-width="1.5" fill="none"/>
  <g fill="#FF9900"><polygon points="207,366 212,371 217,366"/></g>
<path d="M 241 149 L 406 149 L 406 457" stroke="#7B68EE" stroke-width="1.5" fill="none" stroke-dasharray="7 5"/>
<path d="M 406 204 L 572 204" stroke="#7B68EE" stroke-width="1.5" fill="none" stroke-dasharray="7 5"/><g fill="#7B68EE"><polygon points="199,NaN 204,NaN 199,NaN" fill="currentColor"/></g>
<path d="M 406 397 L 572 397" stroke="#7B68EE" stroke-width="1.5" fill="none" stroke-dasharray="7 5"/><g fill="#7B68EE"><polygon points="392,NaN 397,NaN 392,NaN" fill="currentColor"/></g>
<path d="M 406 168 L 830 168 L 830 204 L 960 204" stroke="#7B68EE" stroke-width="1.5" fill="none" stroke-dasharray="7 5"/><g fill="#7B68EE"><polygon points="199,NaN 204,NaN 199,NaN" fill="currentColor"/></g>
<path d="M 406 433 L 830 433 L 830 397 L 960 397" stroke="#7B68EE" stroke-width="1.5" fill="none" stroke-dasharray="7 5"/><g fill="#7B68EE"><polygon points="392,NaN 397,NaN 392,NaN" fill="currentColor"/></g>
<g transform="translate(189 126) scale(0.9583333333333334)"><g fill="#FF9900">
    <title>Icon-Resource/Networking-and-Content-Delivery/Res_Amazon-Route-53-Hosted-Zone_48</title>
    <g id="Icon-Resource/Networking-and-Content-Delivery/Res_Amazon-Route-53-Hosted-Zone_48" stroke="none" stroke-width="1" fill="none" fill-rule="evenodd">
        <path d="M33.4488,39.3643 C28.8848,40.1843 25.0338,42.5853 23.5848,43.5833 C22.1358,42.5853 18.2848,40.1843 13.7198,39.3643 C11.4398,38.9553 3.9998,37.1363 3.9998,30.9253 C3.9998,28.3293 4.9828,26.6353 6.0238,24.8433 C7.0038,23.1543 8.0158,21.4103 8.0158,19.0203 C8.0158,15.4343 6.0408,12.8533 4.9278,11.6843 C6.0608,10.3063 8.5278,7.2973 9.8918,5.5523 C11.9708,7.4423 14.3708,8.4703 16.7468,8.4703 C19.3928,8.4703 21.5918,7.4293 23.5848,5.2123 C25.5768,7.4293 27.7748,8.4703 30.4228,8.4703 C32.7988,8.4703 35.1968,7.4423 37.2758,5.5523 C38.6398,7.2963 41.1068,10.3063 42.2408,11.6843 C41.1278,12.8533 39.1518,15.4343 39.1518,19.0203 C39.1518,21.4103 40.1648,23.1543 41.1438,24.8433 C42.1848,26.6353 43.1688,28.3293 43.1688,30.9253 C43.1688,37.1363 35.7288,38.9553 33.4488,39.3643 M42.8748,23.8383 C41.9498,22.2463 41.1518,20.8713 41.1518,19.0203 C41.1518,15.1103 44.2038,12.5673 44.2328,12.5443 L45.0178,11.9093 L44.3758,11.1303 C44.3248,11.0693 39.3318,5.0173 38.1898,3.4543 L37.4768,2.4783 L36.6518,3.3613 C34.7758,5.3663 32.5638,6.4703 30.4228,6.4703 C28.0598,6.4703 26.1968,5.4123 24.3788,3.0373 L23.5848,2.0003 L22.7908,3.0363 C20.9718,5.4113 19.1078,6.4703 16.7468,6.4703 C14.6038,6.4703 12.3918,5.3663 10.5158,3.3613 L9.6898,2.4773 L8.9778,3.4553 C7.8378,5.0173 2.8448,11.0693 2.7938,11.1303 L2.1508,11.9093 L2.9358,12.5443 C2.9678,12.5693 6.0158,15.0803 6.0158,19.0203 C6.0158,20.8713 5.2188,22.2463 4.2938,23.8383 C3.2188,25.6913 1.9998,27.7913 1.9998,30.9253 C1.9998,36.1653 6.2488,40.0553 13.3668,41.3333 C18.5718,42.2673 22.9318,45.5733 22.9758,45.6063 L23.5858,46.0723 L24.1928,45.6063 C24.2368,45.5733 28.5968,42.2673 33.8028,41.3333 C40.9198,40.0553 45.1688,36.1653 45.1688,30.9253 C45.1688,27.7913 43.9498,25.6913 42.8748,23.8383" id="AWS-Amazon-Route-53-Hosted-zone_Resource-Icon_dark-bg" fill="#8C4FFF"></path>
    </g>
</g></g>
<text x="212" y="192" text-anchor="middle" fill="#f4f1f8" font-family="sans-serif" font-size="13" font-weight="600">Platform_Zone</text>
<text x="212" y="207" text-anchor="middle" fill="#9b92b0" font-family="sans-serif" font-size="11">platform.demo.local</text>
<g transform="translate(104 232) scale(0.5)"><g fill="#FF9900">
    <title>Icon-Architecture/64/Arch_Amazon-Virtual-Private-Cloud_64</title>
    <g id="Icon-Architecture/64/Arch_Amazon-Virtual-Private-Cloud_64" stroke="none" stroke-width="1" fill="none" fill-rule="evenodd">
        <g id="Icon-Architecture-BG/64/Networking-Content-Delivery" fill="#8C4FFF">
            <rect id="Rectangle" x="0" y="0" width="80" height="80"></rect>
        </g>
        <path d="M61,41.3717025 L55.5,39.1717025 L55.5,59.1227025 C57.106,58.9627025 58.401,58.4347025 59.321,57.5007025 C61.021,55.7727025 61.001,53.2397025 61,53.2147025 L61,41.3717025 Z M53.5,59.1357025 L53.5,39.1717025 L48,41.3717025 L48,53.1947025 C48.007,53.4017025 48.234,58.5517025 53.5,59.1357025 L53.5,59.1357025 Z M63,53.1947025 C63.003,53.3077025 63.053,56.5417025 60.765,58.8847025 C59.269,60.4177025 57.16,61.1947025 54.5,61.1947025 C47.927,61.1947025 46.065,55.9767025 46,53.2187025 L46,40.6947025 C46,40.2857025 46.249,39.9177025 46.629,39.7657025 L54.129,36.7657025 C54.367,36.6707025 54.633,36.6707025 54.871,36.7657025 L62.371,39.7657025 C62.751,39.9177025 63,40.2857025 63,40.6947025 L63,53.1947025 Z M66.001,51.2287025 L66,37.8717025 L54.5,33.2717025 L43,37.8717025 L43,51.1947025 C42.998,51.2857025 42.865,57.4227025 46.534,61.1987025 C48.466,63.1867025 51.146,64.1947025 54.5,64.1947025 C57.877,64.1947025 60.57,63.1797025 62.504,61.1787025 C66.168,57.3867025 66.003,51.2897025 66.001,51.2287025 L66.001,51.2287025 Z M63.942,62.5677025 C61.617,64.9747025 58.44,66.1947025 54.5,66.1947025 C50.579,66.1947025 47.413,64.9787025 45.09,62.5807025 C40.831,58.1877025 40.991,51.4477025 41,51.1637025 L41,37.1947025 C41,36.7857025 41.249,36.4177025 41.629,36.2657025 L54.129,31.2657025 C54.367,31.1707025 54.633,31.1707025 54.871,31.2657025 L67.371,36.2657025 C67.751,36.4177025 68,36.7857025 68,37.1947025 L68,51.1947025 C68.009,51.4447025 68.189,58.1727025 63.942,62.5677025 L63.942,62.5677025 Z M23.055,47.1947025 L38,47.1947025 L38,49.1947025 L23.055,49.1947025 C16.977,49.1947025 12.337,45.1427025 12.024,39.5597025 C12.002,39.3317025 12,39.0657025 12,38.7997025 C12,31.9307025 16.803,29.4017025 19.604,28.5117025 C19.584,28.1907025 19.574,27.8657025 19.574,27.5387025 C19.574,22.0857025 23.464,16.3807025 28.621,14.2687025 C34.677,11.7887025 41.062,12.9897025 45.695,17.4757025 C47.256,18.9967025 48.446,20.6207025 49.307,22.4097025 C50.513,21.3747025 51.969,20.8187025 53.529,20.8187025 C56.834,20.8187025 60.33,23.4127025 60.931,28.3817025 C63.114,28.9317025 65.854,30.0997025 67.788,32.5797025 L66.212,33.8097025 C64.43,31.5237025 61.741,30.5717025 59.8,30.1737025 C59.355,30.0837025 59.028,29.7057025 59.002,29.2537025 C58.741,24.8327025 55.982,22.8187025 53.529,22.8187025 C52.067,22.8187025 50.771,23.5087025 49.78,24.8137025 C49.559,25.1057025 49.199,25.2567025 48.835,25.1987025 C48.474,25.1437025 48.17,24.8967025 48.045,24.5537025 C47.278,22.4637025 46.054,20.6177025 44.302,18.9107025 C40.258,14.9967025 34.676,13.9517025 29.379,16.1197025 C24.93,17.9417025 21.574,22.8507025 21.574,27.5387025 C21.574,28.0797025 21.605,28.6147025 21.668,29.1277025 C21.729,29.6287025 21.405,30.0967025 20.915,30.2187025 C18.333,30.8577025 14,32.8237025 14,38.7997025 C14,39.0017025 13.998,39.2047025 14.018,39.4077025 C14.272,43.9357025 18.072,47.1947025 23.055,47.1947025 L23.055,47.1947025 Z" id="Amazon-Virtual-Private-Cloud_Icon_64_Squid" fill="#FFFFFF"></path>
    </g>
</g></g>
<text x="124" y="288" text-anchor="middle" fill="#f4f1f8" font-family="sans-serif" font-size="13" font-weight="600">VPC primary</text>
<text x="124" y="303" text-anchor="middle" fill="#9b92b0" font-family="sans-serif" font-size="11">10.0.0.0/16</text>
<g transform="translate(280 232) scale(0.5)"><g fill="#FF9900">
    <title>Icon-Architecture/64/Arch_Amazon-Virtual-Private-Cloud_64</title>
    <g id="Icon-Architecture/64/Arch_Amazon-Virtual-Private-Cloud_64" stroke="none" stroke-width="1" fill="none" fill-rule="evenodd">
        <g id="Icon-Architecture-BG/64/Networking-Content-Delivery" fill="#8C4FFF">
            <rect id="Rectangle" x="0" y="0" width="80" height="80"></rect>
        </g>
        <path d="M61,41.3717025 L55.5,39.1717025 L55.5,59.1227025 C57.106,58.9627025 58.401,58.4347025 59.321,57.5007025 C61.021,55.7727025 61.001,53.2397025 61,53.2147025 L61,41.3717025 Z M53.5,59.1357025 L53.5,39.1717025 L48,41.3717025 L48,53.1947025 C48.007,53.4017025 48.234,58.5517025 53.5,59.1357025 L53.5,59.1357025 Z M63,53.1947025 C63.003,53.3077025 63.053,56.5417025 60.765,58.8847025 C59.269,60.4177025 57.16,61.1947025 54.5,61.1947025 C47.927,61.1947025 46.065,55.9767025 46,53.2187025 L46,40.6947025 C46,40.2857025 46.249,39.9177025 46.629,39.7657025 L54.129,36.7657025 C54.367,36.6707025 54.633,36.6707025 54.871,36.7657025 L62.371,39.7657025 C62.751,39.9177025 63,40.2857025 63,40.6947025 L63,53.1947025 Z M66.001,51.2287025 L66,37.8717025 L54.5,33.2717025 L43,37.8717025 L43,51.1947025 C42.998,51.2857025 42.865,57.4227025 46.534,61.1987025 C48.466,63.1867025 51.146,64.1947025 54.5,64.1947025 C57.877,64.1947025 60.57,63.1797025 62.504,61.1787025 C66.168,57.3867025 66.003,51.2897025 66.001,51.2287025 L66.001,51.2287025 Z M63.942,62.5677025 C61.617,64.9747025 58.44,66.1947025 54.5,66.1947025 C50.579,66.1947025 47.413,64.9787025 45.09,62.5807025 C40.831,58.1877025 40.991,51.4477025 41,51.1637025 L41,37.1947025 C41,36.7857025 41.249,36.4177025 41.629,36.2657025 L54.129,31.2657025 C54.367,31.1707025 54.633,31.1707025 54.871,31.2657025 L67.371,36.2657025 C67.751,36.4177025 68,36.7857025 68,37.1947025 L68,51.1947025 C68.009,51.4447025 68.189,58.1727025 63.942,62.5677025 L63.942,62.5677025 Z M23.055,47.1947025 L38,47.1947025 L38,49.1947025 L23.055,49.1947025 C16.977,49.1947025 12.337,45.1427025 12.024,39.5597025 C12.002,39.3317025 12,39.0657025 12,38.7997025 C12,31.9307025 16.803,29.4017025 19.604,28.5117025 C19.584,28.1907025 19.574,27.8657025 19.574,27.5387025 C19.574,22.0857025 23.464,16.3807025 28.621,14.2687025 C34.677,11.7887025 41.062,12.9897025 45.695,17.4757025 C47.256,18.9967025 48.446,20.6207025 49.307,22.4097025 C50.513,21.3747025 51.969,20.8187025 53.529,20.8187025 C56.834,20.8187025 60.33,23.4127025 60.931,28.3817025 C63.114,28.9317025 65.854,30.0997025 67.788,32.5797025 L66.212,33.8097025 C64.43,31.5237025 61.741,30.5717025 59.8,30.1737025 C59.355,30.0837025 59.028,29.7057025 59.002,29.2537025 C58.741,24.8327025 55.982,22.8187025 53.529,22.8187025 C52.067,22.8187025 50.771,23.5087025 49.78,24.8137025 C49.559,25.1057025 49.199,25.2567025 48.835,25.1987025 C48.474,25.1437025 48.17,24.8967025 48.045,24.5537025 C47.278,22.4637025 46.054,20.6177025 44.302,18.9107025 C40.258,14.9967025 34.676,13.9517025 29.379,16.1197025 C24.93,17.9417025 21.574,22.8507025 21.574,27.5387025 C21.574,28.0797025 21.605,28.6147025 21.668,29.1277025 C21.729,29.6287025 21.405,30.0967025 20.915,30.2187025 C18.333,30.8577025 14,32.8237025 14,38.7997025 C14,39.0017025 13.998,39.2047025 14.018,39.4077025 C14.272,43.9357025 18.072,47.1947025 23.055,47.1947025 L23.055,47.1947025 Z" id="Amazon-Virtual-Private-Cloud_Icon_64_Squid" fill="#FFFFFF"></path>
    </g>
</g></g>
<text x="300" y="288" text-anchor="middle" fill="#f4f1f8" font-family="sans-serif" font-size="13" font-weight="600">VPC secondary</text>
<text x="300" y="303" text-anchor="middle" fill="#9b92b0" font-family="sans-serif" font-size="11">10.3.0.0/16</text>
<g transform="translate(192 377) scale(0.5)"><g fill="#FF9900">
    <title>Icon-Architecture/64/Arch_Amazon-Virtual-Private-Cloud_64</title>
    <g id="Icon-Architecture/64/Arch_Amazon-Virtual-Private-Cloud_64" stroke="none" stroke-width="1" fill="none" fill-rule="evenodd">
        <g id="Icon-Architecture-BG/64/Networking-Content-Delivery" fill="#8C4FFF">
            <rect id="Rectangle" x="0" y="0" width="80" height="80"></rect>
        </g>
        <path d="M61,41.3717025 L55.5,39.1717025 L55.5,59.1227025 C57.106,58.9627025 58.401,58.4347025 59.321,57.5007025 C61.021,55.7727025 61.001,53.2397025 61,53.2147025 L61,41.3717025 Z M53.5,59.1357025 L53.5,39.1717025 L48,41.3717025 L48,53.1947025 C48.007,53.4017025 48.234,58.5517025 53.5,59.1357025 L53.5,59.1357025 Z M63,53.1947025 C63.003,53.3077025 63.053,56.5417025 60.765,58.8847025 C59.269,60.4177025 57.16,61.1947025 54.5,61.1947025 C47.927,61.1947025 46.065,55.9767025 46,53.2187025 L46,40.6947025 C46,40.2857025 46.249,39.9177025 46.629,39.7657025 L54.129,36.7657025 C54.367,36.6707025 54.633,36.6707025 54.871,36.7657025 L62.371,39.7657025 C62.751,39.9177025 63,40.2857025 63,40.6947025 L63,53.1947025 Z M66.001,51.2287025 L66,37.8717025 L54.5,33.2717025 L43,37.8717025 L43,51.1947025 C42.998,51.2857025 42.865,57.4227025 46.534,61.1987025 C48.466,63.1867025 51.146,64.1947025 54.5,64.1947025 C57.877,64.1947025 60.57,63.1797025 62.504,61.1787025 C66.168,57.3867025 66.003,51.2897025 66.001,51.2287025 L66.001,51.2287025 Z M63.942,62.5677025 C61.617,64.9747025 58.44,66.1947025 54.5,66.1947025 C50.579,66.1947025 47.413,64.9787025 45.09,62.5807025 C40.831,58.1877025 40.991,51.4477025 41,51.1637025 L41,37.1947025 C41,36.7857025 41.249,36.4177025 41.629,36.2657025 L54.129,31.2657025 C54.367,31.1707025 54.633,31.1707025 54.871,31.2657025 L67.371,36.2657025 C67.751,36.4177025 68,36.7857025 68,37.1947025 L68,51.1947025 C68.009,51.4447025 68.189,58.1727025 63.942,62.5677025 L63.942,62.5677025 Z M23.055,47.1947025 L38,47.1947025 L38,49.1947025 L23.055,49.1947025 C16.977,49.1947025 12.337,45.1427025 12.024,39.5597025 C12.002,39.3317025 12,39.0657025 12,38.7997025 C12,31.9307025 16.803,29.4017025 19.604,28.5117025 C19.584,28.1907025 19.574,27.8657025 19.574,27.5387025 C19.574,22.0857025 23.464,16.3807025 28.621,14.2687025 C34.677,11.7887025 41.062,12.9897025 45.695,17.4757025 C47.256,18.9967025 48.446,20.6207025 49.307,22.4097025 C50.513,21.3747025 51.969,20.8187025 53.529,20.8187025 C56.834,20.8187025 60.33,23.4127025 60.931,28.3817025 C63.114,28.9317025 65.854,30.0997025 67.788,32.5797025 L66.212,33.8097025 C64.43,31.5237025 61.741,30.5717025 59.8,30.1737025 C59.355,30.0837025 59.028,29.7057025 59.002,29.2537025 C58.741,24.8327025 55.982,22.8187025 53.529,22.8187025 C52.067,22.8187025 50.771,23.5087025 49.78,24.8137025 C49.559,25.1057025 49.199,25.2567025 48.835,25.1987025 C48.474,25.1437025 48.17,24.8967025 48.045,24.5537025 C47.278,22.4637025 46.054,20.6177025 44.302,18.9107025 C40.258,14.9967025 34.676,13.9517025 29.379,16.1197025 C24.93,17.9417025 21.574,22.8507025 21.574,27.5387025 C21.574,28.0797025 21.605,28.6147025 21.668,29.1277025 C21.729,29.6287025 21.405,30.0967025 20.915,30.2187025 C18.333,30.8577025 14,32.8237025 14,38.7997025 C14,39.0017025 13.998,39.2047025 14.018,39.4077025 C14.272,43.9357025 18.072,47.1947025 23.055,47.1947025 L23.055,47.1947025 Z" id="Amazon-Virtual-Private-Cloud_Icon_64_Squid" fill="#FFFFFF"></path>
    </g>
</g></g>
<text x="212" y="433" text-anchor="middle" fill="#f4f1f8" font-family="sans-serif" font-size="13" font-weight="600">VPC network</text>
<text x="212" y="448" text-anchor="middle" fill="#9b92b0" font-family="sans-serif" font-size="11">10.10.0.0/16</text>
<g transform="translate(580 184) scale(0.5)"><g fill="#7B68EE">
    <title>Icon-Architecture/64/Arch_Amazon-Virtual-Private-Cloud_64</title>
    <g id="Icon-Architecture/64/Arch_Amazon-Virtual-Private-Cloud_64" stroke="none" stroke-width="1" fill="none" fill-rule="evenodd">
        <g id="Icon-Architecture-BG/64/Networking-Content-Delivery" fill="#8C4FFF">
            <rect id="Rectangle" x="0" y="0" width="80" height="80"></rect>
        </g>
        <path d="M61,41.3717025 L55.5,39.1717025 L55.5,59.1227025 C57.106,58.9627025 58.401,58.4347025 59.321,57.5007025 C61.021,55.7727025 61.001,53.2397025 61,53.2147025 L61,41.3717025 Z M53.5,59.1357025 L53.5,39.1717025 L48,41.3717025 L48,53.1947025 C48.007,53.4017025 48.234,58.5517025 53.5,59.1357025 L53.5,59.1357025 Z M63,53.1947025 C63.003,53.3077025 63.053,56.5417025 60.765,58.8847025 C59.269,60.4177025 57.16,61.1947025 54.5,61.1947025 C47.927,61.1947025 46.065,55.9767025 46,53.2187025 L46,40.6947025 C46,40.2857025 46.249,39.9177025 46.629,39.7657025 L54.129,36.7657025 C54.367,36.6707025 54.633,36.6707025 54.871,36.7657025 L62.371,39.7657025 C62.751,39.9177025 63,40.2857025 63,40.6947025 L63,53.1947025 Z M66.001,51.2287025 L66,37.8717025 L54.5,33.2717025 L43,37.8717025 L43,51.1947025 C42.998,51.2857025 42.865,57.4227025 46.534,61.1987025 C48.466,63.1867025 51.146,64.1947025 54.5,64.1947025 C57.877,64.1947025 60.57,63.1797025 62.504,61.1787025 C66.168,57.3867025 66.003,51.2897025 66.001,51.2287025 L66.001,51.2287025 Z M63.942,62.5677025 C61.617,64.9747025 58.44,66.1947025 54.5,66.1947025 C50.579,66.1947025 47.413,64.9787025 45.09,62.5807025 C40.831,58.1877025 40.991,51.4477025 41,51.1637025 L41,37.1947025 C41,36.7857025 41.249,36.4177025 41.629,36.2657025 L54.129,31.2657025 C54.367,31.1707025 54.633,31.1707025 54.871,31.2657025 L67.371,36.2657025 C67.751,36.4177025 68,36.7857025 68,37.1947025 L68,51.1947025 C68.009,51.4447025 68.189,58.1727025 63.942,62.5677025 L63.942,62.5677025 Z M23.055,47.1947025 L38,47.1947025 L38,49.1947025 L23.055,49.1947025 C16.977,49.1947025 12.337,45.1427025 12.024,39.5597025 C12.002,39.3317025 12,39.0657025 12,38.7997025 C12,31.9307025 16.803,29.4017025 19.604,28.5117025 C19.584,28.1907025 19.574,27.8657025 19.574,27.5387025 C19.574,22.0857025 23.464,16.3807025 28.621,14.2687025 C34.677,11.7887025 41.062,12.9897025 45.695,17.4757025 C47.256,18.9967025 48.446,20.6207025 49.307,22.4097025 C50.513,21.3747025 51.969,20.8187025 53.529,20.8187025 C56.834,20.8187025 60.33,23.4127025 60.931,28.3817025 C63.114,28.9317025 65.854,30.0997025 67.788,32.5797025 L66.212,33.8097025 C64.43,31.5237025 61.741,30.5717025 59.8,30.1737025 C59.355,30.0837025 59.028,29.7057025 59.002,29.2537025 C58.741,24.8327025 55.982,22.8187025 53.529,22.8187025 C52.067,22.8187025 50.771,23.5087025 49.78,24.8137025 C49.559,25.1057025 49.199,25.2567025 48.835,25.1987025 C48.474,25.1437025 48.17,24.8967025 48.045,24.5537025 C47.278,22.4637025 46.054,20.6177025 44.302,18.9107025 C40.258,14.9967025 34.676,13.9517025 29.379,16.1197025 C24.93,17.9417025 21.574,22.8507025 21.574,27.5387025 C21.574,28.0797025 21.605,28.6147025 21.668,29.1277025 C21.729,29.6287025 21.405,30.0967025 20.915,30.2187025 C18.333,30.8577025 14,32.8237025 14,38.7997025 C14,39.0017025 13.998,39.2047025 14.018,39.4077025 C14.272,43.9357025 18.072,47.1947025 23.055,47.1947025 L23.055,47.1947025 Z" id="Amazon-Virtual-Private-Cloud_Icon_64_Squid" fill="#FFFFFF"></path>
    </g>
</g></g>
<text x="600" y="240" text-anchor="middle" fill="#f4f1f8" font-family="sans-serif" font-size="13" font-weight="600">VPC dev</text>
<text x="600" y="255" text-anchor="middle" fill="#9b92b0" font-family="sans-serif" font-size="11">10.1.0.0/16</text>
<g transform="translate(580 377) scale(0.5)"><g fill="#7B68EE">
    <title>Icon-Architecture/64/Arch_Amazon-Virtual-Private-Cloud_64</title>
    <g id="Icon-Architecture/64/Arch_Amazon-Virtual-Private-Cloud_64" stroke="none" stroke-width="1" fill="none" fill-rule="evenodd">
        <g id="Icon-Architecture-BG/64/Networking-Content-Delivery" fill="#8C4FFF">
            <rect id="Rectangle" x="0" y="0" width="80" height="80"></rect>
        </g>
        <path d="M61,41.3717025 L55.5,39.1717025 L55.5,59.1227025 C57.106,58.9627025 58.401,58.4347025 59.321,57.5007025 C61.021,55.7727025 61.001,53.2397025 61,53.2147025 L61,41.3717025 Z M53.5,59.1357025 L53.5,39.1717025 L48,41.3717025 L48,53.1947025 C48.007,53.4017025 48.234,58.5517025 53.5,59.1357025 L53.5,59.1357025 Z M63,53.1947025 C63.003,53.3077025 63.053,56.5417025 60.765,58.8847025 C59.269,60.4177025 57.16,61.1947025 54.5,61.1947025 C47.927,61.1947025 46.065,55.9767025 46,53.2187025 L46,40.6947025 C46,40.2857025 46.249,39.9177025 46.629,39.7657025 L54.129,36.7657025 C54.367,36.6707025 54.633,36.6707025 54.871,36.7657025 L62.371,39.7657025 C62.751,39.9177025 63,40.2857025 63,40.6947025 L63,53.1947025 Z M66.001,51.2287025 L66,37.8717025 L54.5,33.2717025 L43,37.8717025 L43,51.1947025 C42.998,51.2857025 42.865,57.4227025 46.534,61.1987025 C48.466,63.1867025 51.146,64.1947025 54.5,64.1947025 C57.877,64.1947025 60.57,63.1797025 62.504,61.1787025 C66.168,57.3867025 66.003,51.2897025 66.001,51.2287025 L66.001,51.2287025 Z M63.942,62.5677025 C61.617,64.9747025 58.44,66.1947025 54.5,66.1947025 C50.579,66.1947025 47.413,64.9787025 45.09,62.5807025 C40.831,58.1877025 40.991,51.4477025 41,51.1637025 L41,37.1947025 C41,36.7857025 41.249,36.4177025 41.629,36.2657025 L54.129,31.2657025 C54.367,31.1707025 54.633,31.1707025 54.871,31.2657025 L67.371,36.2657025 C67.751,36.4177025 68,36.7857025 68,37.1947025 L68,51.1947025 C68.009,51.4447025 68.189,58.1727025 63.942,62.5677025 L63.942,62.5677025 Z M23.055,47.1947025 L38,47.1947025 L38,49.1947025 L23.055,49.1947025 C16.977,49.1947025 12.337,45.1427025 12.024,39.5597025 C12.002,39.3317025 12,39.0657025 12,38.7997025 C12,31.9307025 16.803,29.4017025 19.604,28.5117025 C19.584,28.1907025 19.574,27.8657025 19.574,27.5387025 C19.574,22.0857025 23.464,16.3807025 28.621,14.2687025 C34.677,11.7887025 41.062,12.9897025 45.695,17.4757025 C47.256,18.9967025 48.446,20.6207025 49.307,22.4097025 C50.513,21.3747025 51.969,20.8187025 53.529,20.8187025 C56.834,20.8187025 60.33,23.4127025 60.931,28.3817025 C63.114,28.9317025 65.854,30.0997025 67.788,32.5797025 L66.212,33.8097025 C64.43,31.5237025 61.741,30.5717025 59.8,30.1737025 C59.355,30.0837025 59.028,29.7057025 59.002,29.2537025 C58.741,24.8327025 55.982,22.8187025 53.529,22.8187025 C52.067,22.8187025 50.771,23.5087025 49.78,24.8137025 C49.559,25.1057025 49.199,25.2567025 48.835,25.1987025 C48.474,25.1437025 48.17,24.8967025 48.045,24.5537025 C47.278,22.4637025 46.054,20.6177025 44.302,18.9107025 C40.258,14.9967025 34.676,13.9517025 29.379,16.1197025 C24.93,17.9417025 21.574,22.8507025 21.574,27.5387025 C21.574,28.0797025 21.605,28.6147025 21.668,29.1277025 C21.729,29.6287025 21.405,30.0967025 20.915,30.2187025 C18.333,30.8577025 14,32.8237025 14,38.7997025 C14,39.0017025 13.998,39.2047025 14.018,39.4077025 C14.272,43.9357025 18.072,47.1947025 23.055,47.1947025 L23.055,47.1947025 Z" id="Amazon-Virtual-Private-Cloud_Icon_64_Squid" fill="#FFFFFF"></path>
    </g>
</g></g>
<text x="600" y="433" text-anchor="middle" fill="#f4f1f8" font-family="sans-serif" font-size="13" font-weight="600">VPC dev</text>
<text x="600" y="448" text-anchor="middle" fill="#9b92b0" font-family="sans-serif" font-size="11">10.11.0.0/16</text>
<g transform="translate(968 184) scale(0.5)"><g fill="#48A9A6">
    <title>Icon-Architecture/64/Arch_Amazon-Virtual-Private-Cloud_64</title>
    <g id="Icon-Architecture/64/Arch_Amazon-Virtual-Private-Cloud_64" stroke="none" stroke-width="1" fill="none" fill-rule="evenodd">
        <g id="Icon-Architecture-BG/64/Networking-Content-Delivery" fill="#8C4FFF">
            <rect id="Rectangle" x="0" y="0" width="80" height="80"></rect>
        </g>
        <path d="M61,41.3717025 L55.5,39.1717025 L55.5,59.1227025 C57.106,58.9627025 58.401,58.4347025 59.321,57.5007025 C61.021,55.7727025 61.001,53.2397025 61,53.2147025 L61,41.3717025 Z M53.5,59.1357025 L53.5,39.1717025 L48,41.3717025 L48,53.1947025 C48.007,53.4017025 48.234,58.5517025 53.5,59.1357025 L53.5,59.1357025 Z M63,53.1947025 C63.003,53.3077025 63.053,56.5417025 60.765,58.8847025 C59.269,60.4177025 57.16,61.1947025 54.5,61.1947025 C47.927,61.1947025 46.065,55.9767025 46,53.2187025 L46,40.6947025 C46,40.2857025 46.249,39.9177025 46.629,39.7657025 L54.129,36.7657025 C54.367,36.6707025 54.633,36.6707025 54.871,36.7657025 L62.371,39.7657025 C62.751,39.9177025 63,40.2857025 63,40.6947025 L63,53.1947025 Z M66.001,51.2287025 L66,37.8717025 L54.5,33.2717025 L43,37.8717025 L43,51.1947025 C42.998,51.2857025 42.865,57.4227025 46.534,61.1987025 C48.466,63.1867025 51.146,64.1947025 54.5,64.1947025 C57.877,64.1947025 60.57,63.1797025 62.504,61.1787025 C66.168,57.3867025 66.003,51.2897025 66.001,51.2287025 L66.001,51.2287025 Z M63.942,62.5677025 C61.617,64.9747025 58.44,66.1947025 54.5,66.1947025 C50.579,66.1947025 47.413,64.9787025 45.09,62.5807025 C40.831,58.1877025 40.991,51.4477025 41,51.1637025 L41,37.1947025 C41,36.7857025 41.249,36.4177025 41.629,36.2657025 L54.129,31.2657025 C54.367,31.1707025 54.633,31.1707025 54.871,31.2657025 L67.371,36.2657025 C67.751,36.4177025 68,36.7857025 68,37.1947025 L68,51.1947025 C68.009,51.4447025 68.189,58.1727025 63.942,62.5677025 L63.942,62.5677025 Z M23.055,47.1947025 L38,47.1947025 L38,49.1947025 L23.055,49.1947025 C16.977,49.1947025 12.337,45.1427025 12.024,39.5597025 C12.002,39.3317025 12,39.0657025 12,38.7997025 C12,31.9307025 16.803,29.4017025 19.604,28.5117025 C19.584,28.1907025 19.574,27.8657025 19.574,27.5387025 C19.574,22.0857025 23.464,16.3807025 28.621,14.2687025 C34.677,11.7887025 41.062,12.9897025 45.695,17.4757025 C47.256,18.9967025 48.446,20.6207025 49.307,22.4097025 C50.513,21.3747025 51.969,20.8187025 53.529,20.8187025 C56.834,20.8187025 60.33,23.4127025 60.931,28.3817025 C63.114,28.9317025 65.854,30.0997025 67.788,32.5797025 L66.212,33.8097025 C64.43,31.5237025 61.741,30.5717025 59.8,30.1737025 C59.355,30.0837025 59.028,29.7057025 59.002,29.2537025 C58.741,24.8327025 55.982,22.8187025 53.529,22.8187025 C52.067,22.8187025 50.771,23.5087025 49.78,24.8137025 C49.559,25.1057025 49.199,25.2567025 48.835,25.1987025 C48.474,25.1437025 48.17,24.8967025 48.045,24.5537025 C47.278,22.4637025 46.054,20.6177025 44.302,18.9107025 C40.258,14.9967025 34.676,13.9517025 29.379,16.1197025 C24.93,17.9417025 21.574,22.8507025 21.574,27.5387025 C21.574,28.0797025 21.605,28.6147025 21.668,29.1277025 C21.729,29.6287025 21.405,30.0967025 20.915,30.2187025 C18.333,30.8577025 14,32.8237025 14,38.7997025 C14,39.0017025 13.998,39.2047025 14.018,39.4077025 C14.272,43.9357025 18.072,47.1947025 23.055,47.1947025 L23.055,47.1947025 Z" id="Amazon-Virtual-Private-Cloud_Icon_64_Squid" fill="#FFFFFF"></path>
    </g>
</g></g>
<text x="988" y="240" text-anchor="middle" fill="#f4f1f8" font-family="sans-serif" font-size="13" font-weight="600">VPC sandbox</text>
<text x="988" y="255" text-anchor="middle" fill="#9b92b0" font-family="sans-serif" font-size="11">10.2.0.0/16</text>
<g transform="translate(968 377) scale(0.5)"><g fill="#48A9A6">
    <title>Icon-Architecture/64/Arch_Amazon-Virtual-Private-Cloud_64</title>
    <g id="Icon-Architecture/64/Arch_Amazon-Virtual-Private-Cloud_64" stroke="none" stroke-width="1" fill="none" fill-rule="evenodd">
        <g id="Icon-Architecture-BG/64/Networking-Content-Delivery" fill="#8C4FFF">
            <rect id="Rectangle" x="0" y="0" width="80" height="80"></rect>
        </g>
        <path d="M61,41.3717025 L55.5,39.1717025 L55.5,59.1227025 C57.106,58.9627025 58.401,58.4347025 59.321,57.5007025 C61.021,55.7727025 61.001,53.2397025 61,53.2147025 L61,41.3717025 Z M53.5,59.1357025 L53.5,39.1717025 L48,41.3717025 L48,53.1947025 C48.007,53.4017025 48.234,58.5517025 53.5,59.1357025 L53.5,59.1357025 Z M63,53.1947025 C63.003,53.3077025 63.053,56.5417025 60.765,58.8847025 C59.269,60.4177025 57.16,61.1947025 54.5,61.1947025 C47.927,61.1947025 46.065,55.9767025 46,53.2187025 L46,40.6947025 C46,40.2857025 46.249,39.9177025 46.629,39.7657025 L54.129,36.7657025 C54.367,36.6707025 54.633,36.6707025 54.871,36.7657025 L62.371,39.7657025 C62.751,39.9177025 63,40.2857025 63,40.6947025 L63,53.1947025 Z M66.001,51.2287025 L66,37.8717025 L54.5,33.2717025 L43,37.8717025 L43,51.1947025 C42.998,51.2857025 42.865,57.4227025 46.534,61.1987025 C48.466,63.1867025 51.146,64.1947025 54.5,64.1947025 C57.877,64.1947025 60.57,63.1797025 62.504,61.1787025 C66.168,57.3867025 66.003,51.2897025 66.001,51.2287025 L66.001,51.2287025 Z M63.942,62.5677025 C61.617,64.9747025 58.44,66.1947025 54.5,66.1947025 C50.579,66.1947025 47.413,64.9787025 45.09,62.5807025 C40.831,58.1877025 40.991,51.4477025 41,51.1637025 L41,37.1947025 C41,36.7857025 41.249,36.4177025 41.629,36.2657025 L54.129,31.2657025 C54.367,31.1707025 54.633,31.1707025 54.871,31.2657025 L67.371,36.2657025 C67.751,36.4177025 68,36.7857025 68,37.1947025 L68,51.1947025 C68.009,51.4447025 68.189,58.1727025 63.942,62.5677025 L63.942,62.5677025 Z M23.055,47.1947025 L38,47.1947025 L38,49.1947025 L23.055,49.1947025 C16.977,49.1947025 12.337,45.1427025 12.024,39.5597025 C12.002,39.3317025 12,39.0657025 12,38.7997025 C12,31.9307025 16.803,29.4017025 19.604,28.5117025 C19.584,28.1907025 19.574,27.8657025 19.574,27.5387025 C19.574,22.0857025 23.464,16.3807025 28.621,14.2687025 C34.677,11.7887025 41.062,12.9897025 45.695,17.4757025 C47.256,18.9967025 48.446,20.6207025 49.307,22.4097025 C50.513,21.3747025 51.969,20.8187025 53.529,20.8187025 C56.834,20.8187025 60.33,23.4127025 60.931,28.3817025 C63.114,28.9317025 65.854,30.0997025 67.788,32.5797025 L66.212,33.8097025 C64.43,31.5237025 61.741,30.5717025 59.8,30.1737025 C59.355,30.0837025 59.028,29.7057025 59.002,29.2537025 C58.741,24.8327025 55.982,22.8187025 53.529,22.8187025 C52.067,22.8187025 50.771,23.5087025 49.78,24.8137025 C49.559,25.1057025 49.199,25.2567025 48.835,25.1987025 C48.474,25.1437025 48.17,24.8967025 48.045,24.5537025 C47.278,22.4637025 46.054,20.6177025 44.302,18.9107025 C40.258,14.9967025 34.676,13.9517025 29.379,16.1197025 C24.93,17.9417025 21.574,22.8507025 21.574,27.5387025 C21.574,28.0797025 21.605,28.6147025 21.668,29.1277025 C21.729,29.6287025 21.405,30.0967025 20.915,30.2187025 C18.333,30.8577025 14,32.8237025 14,38.7997025 C14,39.0017025 13.998,39.2047025 14.018,39.4077025 C14.272,43.9357025 18.072,47.1947025 23.055,47.1947025 L23.055,47.1947025 Z" id="Amazon-Virtual-Private-Cloud_Icon_64_Squid" fill="#FFFFFF"></path>
    </g>
</g></g>
<text x="988" y="433" text-anchor="middle" fill="#f4f1f8" font-family="sans-serif" font-size="13" font-weight="600">VPC sandbox</text>
<text x="988" y="448" text-anchor="middle" fill="#9b92b0" font-family="sans-serif" font-size="11">10.12.0.0/16</text>
<line x1="328" y1="510" x2="378" y2="510" stroke="#FF9900" stroke-width="2"/>
  <text x="390" y="515" fill="#94a3b8" font-family="sans-serif" font-size="12">associate (same account)</text>
<line x1="586" y1="510" x2="636" y2="510" stroke="#7B68EE" stroke-width="2" stroke-dasharray="7 5"/>
  <text x="648" y="515" fill="#94a3b8" font-family="sans-serif" font-size="12">auth + associate (cross-account)</text></g></g>
  <text x="600" y="584" text-anchor="middle" fill="#9b92b0" font-family="sans-serif" font-size="20">Classic VPC association authorization · no Profiles or RAM</text>
  <text x="600" y="608" text-anchor="middle" fill="#64748b" font-family="sans-serif" font-size="18">jajera.github.io/route53-classic-multi-account-walkthrough</text>
</svg>