<?xml version="1.0" encoding="UTF-8"?>
<svg xmlns="http://www.w3.org/2000/svg" width="980" height="520" viewBox="0 0 980 520" fill="none" role="img" aria-label="Seven Test EC2 instances across three accounts and two regions all resolve api.platform.demo.local to 10.0.1.10">
  <defs>
    <marker id="arrow-solid" markerWidth="8" markerHeight="8" refX="7" refY="4" orient="auto"><polygon class="arrow-head" points="0 0, 8 4, 0 8"/></marker>
    <marker id="arrow-dashed" markerWidth="8" markerHeight="8" refX="7" refY="4" orient="auto"><polygon class="arrow-head-dashed" points="0 0, 8 4, 0 8"/></marker>
    <style>
  
  .diagram-frame { fill: #1e2836; stroke: #3d4f63; stroke-width: 1.5; }
  @media (prefers-color-scheme: light) {
    .diagram-frame { fill: #f8fafc; stroke: #c5cdd6; }
  }

  .panel { fill: #243040; stroke: #3d4f63; stroke-width: 1; }
  .panel.network { stroke: #7B68EE; stroke-opacity: 0.45; }
  .panel-title { fill: #f4f1f8; font-family: sans-serif; font-size: 13px; font-weight: 600; }
  .node { fill: #243040; stroke: #3d4f63; stroke-width: 1.5; }
  .node.accent, .node.ok { stroke: #7B68EE; }
  .node.auth { stroke: #64748b; stroke-dasharray: 4 3; }
  .node.fail { stroke: #e57373; }
  .node-label { fill: #f4f1f8; font-family: ui-monospace, monospace; font-size: 11px; font-weight: 500; }
  .node-label.small { font-size: 10px; }
  .detail, .edge-label { fill: #94a3b8; font-family: sans-serif; font-size: 10px; }
  .edge-label { font-size: 9px; }
  .link { stroke: #64748b; stroke-width: 1.5; fill: none; }
  .link.cross { stroke: #7B68EE; }
  .link.dashed { stroke: #94a3b8; stroke-dasharray: 5 4; }
  .arrow-head { fill: #7B68EE; }
  .arrow-head-dashed { fill: #94a3b8; }
  .diamond { fill: #243040; stroke: #7B68EE; stroke-width: 1.5; }
  .dir, .file { fill: #f4f1f8; font-family: ui-monospace, monospace; font-size: 12px; }
  .file { fill: #b8a9e8; }
  .comment { fill: #94a3b8; font-family: sans-serif; font-size: 11px; }
  .tree { stroke: #64748b; stroke-width: 1.5; fill: none; }
  @media (prefers-color-scheme: light) {
    .panel { fill: #eef1f5; stroke: #c5cdd6; }
    .panel.network { stroke: #6d5f95; }
    .panel-title, .node-label, .dir { fill: #1f2937; }
    .node { fill: #eef1f5; stroke: #c5cdd6; }
    .node.accent, .node.ok { stroke: #6d5f95; }
    .node.auth { stroke: #9ca3af; }
    .detail, .edge-label, .comment { fill: #4b5563; }
    .link { stroke: #9ca3af; }
    .link.cross { stroke: #6d5f95; }
    .link.dashed { stroke: #6b7280; }
    .arrow-head { fill: #6d5f95; }
    .arrow-head-dashed { fill: #6b7280; }
    .diamond { fill: #eef1f5; stroke: #6d5f95; }
    .file { fill: #5b4d8a; }
    .tree { stroke: #9ca3af; }
  }

  .region-label { fill: #94a3b8; font-family: sans-serif; font-size: 10px; font-weight: 600; }
  .node.ec2 { stroke: #7B68EE; stroke-opacity: 0.55; }
  .record { fill: #94a3b8; font-family: ui-monospace, monospace; font-size: 9px; }
  .link.query { stroke: #7B68EE; stroke-opacity: 0.65; stroke-dasharray: 4 3; }
  .test-badge { fill: #7B68EE; }
  .test-num { fill: #0f172a; font-family: sans-serif; font-size: 9px; font-weight: 700; }
  .result-bar { fill: #243040; stroke: #7B68EE; stroke-opacity: 0.45; stroke-width: 1.5; }
  .result-title { fill: #94a3b8; font-family: sans-serif; font-size: 11px; font-weight: 600; }
  .result-query { fill: #f4f1f8; font-family: ui-monospace, monospace; font-size: 12px; }
  .result-arrow { fill: #7B68EE; font-family: sans-serif; font-size: 14px; font-weight: 600; }
  .result-ip { fill: #b8a9e8; font-family: ui-monospace, monospace; font-size: 13px; font-weight: 600; }
  @media (prefers-color-scheme: light) {
    .region-label, .result-title, .record { fill: #4b5563; }
    .node.ec2 { stroke: #6d5f95; }
    .link.query { stroke: #6d5f95; }
    .test-badge { fill: #6d5f95; }
    .test-num { fill: #f8fafc; }
    .result-bar { fill: #eef1f5; stroke: #6d5f95; }
    .result-query { fill: #1f2937; }
    .result-arrow { fill: #6d5f95; }
    .result-ip { fill: #5b4d8a; }
  }
</style>
  </defs>
  <rect class="diagram-frame" x="1" y="1" width="978" height="518" rx="10"/>
  
  <rect class="panel network" x="20" y="20" width="340" height="400" rx="8"/>
  <text class="panel-title" x="190" y="44" text-anchor="middle">Network Account</text>
  <rect class="panel" x="380" y="20" width="280" height="400" rx="8"/>
  <text class="panel-title" x="520" y="44" text-anchor="middle">Dev Account</text>
  <rect class="panel" x="680" y="20" width="280" height="400" rx="8"/>
  <text class="panel-title" x="820" y="44" text-anchor="middle">Sandbox Account</text>

  <path class="link query" d="M 92 148 L 92 112 L 190 112 L 190 100" marker-end="url(#arrow-solid)"/>
  <path class="link query" d="M 260 148 L 260 112 L 190 112"/>
  <path class="link query" d="M 180 308 L 180 104 L 190 104"/>
  <path class="link query" d="M 400 152 L 368 152 L 368 98 L 292 98 L 292 100" marker-end="url(#arrow-solid)"/>
  <path class="link query" d="M 400 312 L 362 312 L 362 96 L 292 96"/>
  <path class="link query" d="M 700 152 L 668 152 L 668 94 L 292 94"/>
  <path class="link query" d="M 700 312 L 662 312 L 662 92 L 292 92"/>

  <rect class="node accent" x="90" y="56" width="200" height="44" rx="6"/>
  <text class="node-label" x="190" y="76" text-anchor="middle">Platform_Zone</text>
  <text class="record" x="190" y="92" text-anchor="middle">api.platform.demo.local → 10.0.1.10</text>

  <text class="region-label" x="32" y="132">ap-southeast-2</text>
  <text class="region-label" x="32" y="292">ap-southeast-6</text>
  <text class="region-label" x="392" y="116">ap-southeast-2</text>
  <text class="region-label" x="392" y="276">ap-southeast-6</text>
  <text class="region-label" x="692" y="116">ap-southeast-2</text>
  <text class="region-label" x="692" y="276">ap-southeast-6</text>

  <rect class="node ec2" x="32" y="148" width="120" height="48" rx="6"/>
  <circle class="test-badge" cx="46" cy="162" r="10"/>
  <text class="test-num" x="46" y="166" text-anchor="middle">1</text>
  <text class="node-label small" x="92" y="170" text-anchor="middle">Test EC2</text>
  <text class="detail" x="92" y="184" text-anchor="middle">network primary</text>

  <rect class="node ec2" x="200" y="148" width="120" height="48" rx="6"/>
  <circle class="test-badge" cx="214" cy="162" r="10"/>
  <text class="test-num" x="214" y="166" text-anchor="middle">2</text>
  <text class="node-label small" x="260" y="170" text-anchor="middle">Test EC2</text>
  <text class="detail" x="260" y="184" text-anchor="middle">network secondary</text>

  <rect class="node ec2" x="120" y="308" width="120" height="48" rx="6"/>
  <circle class="test-badge" cx="134" cy="322" r="10"/>
  <text class="test-num" x="134" y="326" text-anchor="middle">3</text>
  <text class="node-label small" x="180" y="330" text-anchor="middle">Test EC2</text>
  <text class="detail" x="180" y="344" text-anchor="middle">network-apse6</text>

  <rect class="node ec2" x="400" y="128" width="120" height="48" rx="6"/>
  <circle class="test-badge" cx="414" cy="142" r="10"/>
  <text class="test-num" x="414" y="146" text-anchor="middle">4</text>
  <text class="node-label small" x="460" y="150" text-anchor="middle">Test EC2</text>
  <text class="detail" x="460" y="164" text-anchor="middle">dev-apse2</text>

  <rect class="node ec2" x="400" y="288" width="120" height="48" rx="6"/>
  <circle class="test-badge" cx="414" cy="302" r="10"/>
  <text class="test-num" x="414" y="306" text-anchor="middle">5</text>
  <text class="node-label small" x="460" y="310" text-anchor="middle">Test EC2</text>
  <text class="detail" x="460" y="324" text-anchor="middle">dev-apse6</text>

  <rect class="node ec2" x="700" y="128" width="120" height="48" rx="6"/>
  <circle class="test-badge" cx="714" cy="142" r="10"/>
  <text class="test-num" x="714" y="146" text-anchor="middle">6</text>
  <text class="node-label small" x="760" y="150" text-anchor="middle">Test EC2</text>
  <text class="detail" x="760" y="164" text-anchor="middle">sandbox-apse2</text>

  <rect class="node ec2" x="700" y="288" width="120" height="48" rx="6"/>
  <circle class="test-badge" cx="714" cy="302" r="10"/>
  <text class="test-num" x="714" y="306" text-anchor="middle">7</text>
  <text class="node-label small" x="760" y="310" text-anchor="middle">Test EC2</text>
  <text class="detail" x="760" y="324" text-anchor="middle">sandbox-apse6</text>

  <rect class="result-bar" x="32" y="432" width="916" height="72" rx="8"/>
  <text class="result-title" x="490" y="456" text-anchor="middle">Expected from every Test EC2 (Tests 1–7)</text>
  <text x="490" y="482" text-anchor="middle">
    <tspan class="result-query">dig +short api.platform.demo.local</tspan>
    <tspan class="result-arrow"> → </tspan>
    <tspan class="result-ip">10.0.1.10</tspan>
  </text>

</svg>